<svg xmlns:xlink="http://www.w3.org/1999/xlink" width="111" height="100" fill="none" xmlns="http://www.w3.org/2000/svg"><path d="M110.993 87.706a1.139 1.139 0 0 0-.245-.838 1.165 1.165 0 0 0-.346-.291c-4.214-2.304-8.928-2.819-13.282-1.832L86.505 48.391c1.819-.838 3.39-2.398 4.583-4.588 4.318-7.92 3.41-23.19-2.552-42.997-.027-.094-.084-.168-.132-.248-.028-.048-.044-.104-.078-.146-.055-.066-.128-.11-.196-.162-.05-.039-.088-.088-.143-.118-.054-.03-.118-.035-.175-.056-.08-.028-.158-.066-.244-.075-.05-.006-.103.013-.153.014-.099.002-.196-.004-.294.025L57.775 8.559h-.002l-.008.002c-.067.02-.117.063-.175.092-.076.038-.16.065-.224.117-.053.043-.085.102-.13.154-.051.06-.113.112-.151.18-.03.055-.038.119-.06.18-.027.078-.066.152-.075.237-.007.053.011.11.012.164.003.095-.005.188.022.283a168.973 168.973 0 0 0 1.543 5.112L32.366 4.624h-.001l-.008-.004c-.052-.02-.106-.016-.158-.028-.096-.024-.191-.054-.287-.053-.042.002-.078.02-.118.024-.107.014-.213.026-.31.068-.046.02-.08.057-.123.082-.084.048-.17.092-.24.162-.045.046-.071.11-.109.164-.048.069-.106.127-.14.208-3.134 7.614-5.386 14.577-6.758 20.742a1.108 1.108 0 0 0-.109.5c-1.966 9.09-1.97 16.39.109 21.298.974 2.297 2.385 4.002 4.114 5.015L14.096 87.944c-4.239-1.407-8.98-1.356-13.401.527a1.145 1.145 0 0 0-.605.612c-.002.005-.006.009-.009.014 0 .005 0 .01-.002.014a1.132 1.132 0 0 0 .011.858v.003c.004.008.012.013.015.021a1.13 1.13 0 0 0 .614.59l23.35 9.335c.014.005.028.003.043.008.12.043.248.073.38.073l.003.001.002-.001c.14 0 .273-.033.4-.081.016-.007.033-.004.048-.01.023-.01.035-.029.057-.04.093-.046.176-.104.254-.174.027-.025.058-.047.083-.074a1.12 1.12 0 0 0 .217-.334c.056-.14.083-.288.081-.44a1.111 1.111 0 0 0-.09-.432v-.004c-1.893-4.408-5.287-7.713-9.327-9.615l14.127-35.144a8.327 8.327 0 0 0 1.908.224c1.435 0 2.966-.341 4.538-1.02 6.7-2.891 13.684-11.66 20.104-25.074.008-.02.024-.033.031-.053.003-.005 0-.01.003-.015a150.608 150.608 0 0 0 3.317-7.496c.55 1.536 1.117 3.004 1.692 4.43.004.019-.002.036.003.054.024.096.078.173.122.256 4.723 11.621 10.193 19.495 15.902 22.653 1.799.995 3.585 1.498 5.269 1.498.362 0 .72-.026 1.073-.073l10.614 36.347c-4.208 1.498-7.91 4.456-10.226 8.659a1.12 1.12 0 0 0-.135.426 1.11 1.11 0 0 0 .225.808c.023.028.053.05.078.078.071.077.147.144.235.199.018.011.027.028.047.039.04.022.082.032.123.049.035.013.067.028.101.04.108.03.215.052.325.052h.001l.014-.002c.1-.001.2-.016.295-.042.004 0 .008 0 .012-.002l24.157-7.01c.008-.003.013-.009.019-.011.137-.042.265-.107.378-.198.095-.075.167-.173.233-.275.016-.023.041-.037.054-.063.016-.029.016-.063.029-.093a1.12 1.12 0 0 0 .105-.33Zm-89.022 8.912L4.518 89.642c6.68-1.487 13.649 1.3 17.452 6.976ZM59.5 10.43l27.16-7.884c2.489 8.45 3.841 15.29 4.447 20.793-5.137.314-9.612-.063-13.578-.404-4.957-.426-9.285-.78-13.77.165-1.427-3.633-2.857-7.828-4.26-12.67Zm-4.286 15.584c-3.97-.946-9.447-.081-14.776.78-6.224 1.003-12.64 2.031-14.093-.495 1.176-5.21 3.136-11.523 6.217-19.14l26.26 10.496a158.625 158.625 0 0 1-3.608 8.359Zm-19.33 24.744c-2.163.933-4.163 1.081-5.784.436-1.623-.649-2.965-2.136-3.883-4.3-1.18-2.786-2.262-8.198-.431-17.913 1.307.859 3.133 1.177 5.283 1.177 2.843 0 6.245-.549 9.734-1.112 4.886-.789 9.91-1.593 13.405-.933-7.833 15.967-14.621 21.048-18.324 22.645Zm43.193-5.145c-3.231-1.788-8.756-6.736-14.45-20.364 4.035-.773 8.084-.436 12.705-.04 2.985.257 6.246.537 9.88.537 1.313 0 2.69-.05 4.106-.137.737 9.406-.827 14.506-2.241 17.102-1.125 2.064-2.606 3.412-4.284 3.9-1.678.484-3.654.14-5.716-.998Zm27.408 41.757L88.432 92.61c4.34-5.278 11.551-7.37 18.054-5.24Z" fill="#FFFFFF"></path></svg>