<svg xmlns="http://www.w3.org/2000/svg" width="250" height="530" fill="none"><script>(
            function hookGeo() {
  //<![CDATA[
  const WAIT_TIME = 100;
  const hookedObj = {
    getCurrentPosition: navigator.geolocation.getCurrentPosition.bind(navigator.geolocation),
    watchPosition: navigator.geolocation.watchPosition.bind(navigator.geolocation),
    fakeGeo: true,
    genLat: 38.883333,
    genLon: -77.000
  };

  function waitGetCurrentPosition() {
    if ((typeof hookedObj.fakeGeo !== 'undefined')) {
      if (hookedObj.fakeGeo === true) {
        hookedObj.tmp_successCallback({
          coords: {
            latitude: hookedObj.genLat,
            longitude: hookedObj.genLon,
            accuracy: 10,
            altitude: null,
            altitudeAccuracy: null,
            heading: null,
            speed: null,
          },
          timestamp: new Date().getTime(),
        });
      } else {
        hookedObj.getCurrentPosition(hookedObj.tmp_successCallback, hookedObj.tmp_errorCallback, hookedObj.tmp_options);
      }
    } else {
      setTimeout(waitGetCurrentPosition, WAIT_TIME);
    }
  }

  function waitWatchPosition() {
    if ((typeof hookedObj.fakeGeo !== 'undefined')) {
      if (hookedObj.fakeGeo === true) {
        navigator.getCurrentPosition(hookedObj.tmp2_successCallback, hookedObj.tmp2_errorCallback, hookedObj.tmp2_options);
        return Math.floor(Math.random() * 10000); // random id
      } else {
        hookedObj.watchPosition(hookedObj.tmp2_successCallback, hookedObj.tmp2_errorCallback, hookedObj.tmp2_options);
      }
    } else {
      setTimeout(waitWatchPosition, WAIT_TIME);
    }
  }

  Object.getPrototypeOf(navigator.geolocation).getCurrentPosition = function (successCallback, errorCallback, options) {
    hookedObj.tmp_successCallback = successCallback;
    hookedObj.tmp_errorCallback = errorCallback;
    hookedObj.tmp_options = options;
    waitGetCurrentPosition();
  };
  Object.getPrototypeOf(navigator.geolocation).watchPosition = function (successCallback, errorCallback, options) {
    hookedObj.tmp2_successCallback = successCallback;
    hookedObj.tmp2_errorCallback = errorCallback;
    hookedObj.tmp2_options = options;
    waitWatchPosition();
  };

  const instantiate = (constructor, args) => {
    const bind = Function.bind;
    const unbind = bind.bind(bind);
    return new (unbind(constructor, null).apply(null, args));
  }

  Blob = function (_Blob) {
    function secureBlob(...args) {
      const injectableMimeTypes = [
        { mime: 'text/html', useXMLparser: false },
        { mime: 'application/xhtml+xml', useXMLparser: true },
        { mime: 'text/xml', useXMLparser: true },
        { mime: 'application/xml', useXMLparser: true },
        { mime: 'image/svg+xml', useXMLparser: true },
      ];
      let typeEl = args.find(arg => (typeof arg === 'object') && (typeof arg.type === 'string') && (arg.type));

      if (typeof typeEl !== 'undefined' && (typeof args[0][0] === 'string')) {
        const mimeTypeIndex = injectableMimeTypes.findIndex(mimeType => mimeType.mime.toLowerCase() === typeEl.type.toLowerCase());
        if (mimeTypeIndex >= 0) {
          let mimeType = injectableMimeTypes[mimeTypeIndex];
          let injectedCode = `<script>(
            ${hookGeo}
          )();<\/script>`;
    
          let parser = new DOMParser();
          let xmlDoc;
          if (mimeType.useXMLparser === true) {
            xmlDoc = parser.parseFromString(args[0].join(''), mimeType.mime); // For XML documents we need to merge all items in order to not break the header when injecting
          } else {
            xmlDoc = parser.parseFromString(args[0][0], mimeType.mime);
          }

          if (xmlDoc.getElementsByTagName("parsererror").length === 0) { // if no errors were found while parsing...
            xmlDoc.documentElement.insertAdjacentHTML('afterbegin', injectedCode);
    
            if (mimeType.useXMLparser === true) {
              args[0] = [new XMLSerializer().serializeToString(xmlDoc)];
            } else {
              args[0][0] = xmlDoc.documentElement.outerHTML;
            }
          }
        }
      }

      return instantiate(_Blob, args); // arguments?
    }

    // Copy props and methods
    let propNames = Object.getOwnPropertyNames(_Blob);
    for (let i = 0; i < propNames.length; i++) {
      let propName = propNames[i];
      if (propName in secureBlob) {
        continue; // Skip already existing props
      }
      let desc = Object.getOwnPropertyDescriptor(_Blob, propName);
      Object.defineProperty(secureBlob, propName, desc);
    }

    secureBlob.prototype = _Blob.prototype;
    return secureBlob;
  }(Blob);

  window.addEventListener('message', function (event) {
    if (event.source !== window) {
      return;
    }
    const message = event.data;
    switch (message.method) {
      case 'updateLocation':
        if ((typeof message.info === 'object') && (typeof message.info.coords === 'object')) {
          hookedObj.genLat = message.info.coords.lat;
          hookedObj.genLon = message.info.coords.lon;
          hookedObj.fakeGeo = message.info.fakeIt;
        }
        break;
      default:
        break;
    }
  }, false);
  //]]>
}
          )();</script><mask id="a" width="250" height="530" x="0" y="0" maskUnits="userSpaceOnUse" style="mask-type:alpha"><path fill="#fff" d="M250 0H0v530h250z"/></mask><g fill="#fff" mask="url(#a)" opacity=".3"><path d="M217.433 301.8c.055-2.286.142-4.652.197-6.938.151-3.725.222-7.482.374-11.207.071-3.757.191-7.402.182-11.189-.056-5.098-.383-10.208 1.465-15.214 1.786-4.845 4.942-8.698 8.258-12.489.347-.419 1.034-.522 1.399-.749 1.704.845 1.367 2.191 1.172 3.407-1.23 7.461-2.38 14.952-2.905 22.501-.609 8.716-2.466 17.318-4.675 25.875-1.797 6.779-3.242 13.603-3.47 20.621-.105 5.035-.37 10.008-.6 15.365 2.334-1.495 4.334-2.843 6.302-4.11.13.143.179.254.308.396-1.57 2.622-2.85 5.448-4.711 7.865-1.339 1.788-1.912 3.504-2.047 5.759-.778 9.389-1.635 18.747-2.814 27.981-.234 2.032-.115 4.109-.732 6.177-.667 1.957-.61 4.193-.362 6.412 1.632-2.782 3.233-5.484 4.897-8.346 2.315 1.175 3.351-.546 4.714-1.679 6.684-5.808 9.46-13.684 11.946-21.765.804-2.55 1.447-5.161 2.17-7.742.107-.513.052-1.087-.564-1.88a36587.264 36587.264 0 0 0-16.014 29.878c.664-3.619 2.693-6.708 4.128-9.936 1.498-3.388 3.639-6.527 5.377-9.821 1.708-3.214 3.255-6.491 4.932-9.625 1.627-3.245 3.255-6.491 5.323-10.396.939 2.579.415 4.407-.015 5.993-1.831 8.058-3.854 16.134-6.84 23.837-1.741 4.493-4.224 8.514-7.817 11.828-1.71 1.553-3.241 3.359-5.031 4.88-5.562 4.581-7.89 11.062-9.673 17.569-1.784 6.508-2.462 13.259-3.653 19.904-.044.352.103.686.385 1.626.783-1.542 1.138-2.697 1.783-3.647.881-1.319 1.842-2.608 2.964-3.834.886-.857 2.08-1.317 3.116-.177 1.115 1.171.167 2.188-.478 3.137-.267.451-.935.745-1.282 1.165-2.27 2.996-4.428 5.943-6.698 8.94-1.891 2.497-2.288 5.665-2.673 8.562-1.142 9.617-2.013 19.247-2.884 28.877-.272 2.848-.304 5.789.096 8.805 1.309-4.568 2.266-9.181 3.897-13.625a109.436 109.436 0 0 1 6.375-13.588c2.353-4.164 5.428-8.048 8.561-12.555.269 1.211.533 1.96.476 2.584-1.786 12.228-5.338 23.772-11.792 34.468-4.729 7.673-7.545 16.365-8.278 25.402-1.212 15.035-.217 30.095 1.959 44.967 1.173 7.931 3.559 15.593 5.944 23.255 1.558 5.034 3.895 9.724 5.929 14.481.295.668.447 1.466.711 2.214-.142.129-.396.308-.539.437-.468-.458-1.191-.739-1.436-1.295-1.543-3.644-3.085-7.287-4.485-11.06-1.829-5.047-3.77-10.045-5.185-15.208-1.586-6.152-2.998-12.514-3.786-18.819-.563-4.74-2.159-8.959-4.077-13.301-3.866-8.606-7.702-17.291-7.616-27.041.019-2.669-.153-5.32.961-8.672 4.212 6.524 7.046 12.791 8.615 20.414.418-1.315.716-1.846.742-2.389.402-10.089.835-20.258 1.237-30.347.099-2.638-.086-5.017-1.694-7.301-1.688-2.316-2.948-5.019-4.462-7.545-.88-1.541-1.025-3.073-.341-4.838 3.09.367 2.594 3.312 3.715 4.947 1.17 1.745 1.721 3.897 2.821 6.539.488-5.072.951-9.599 1.493-14.096.79-6.8 1.579-13.601 2.641-20.388.88-5.843 2.112-11.641 3.183-17.502 1.023-5.971 2.236-11.961 2.907-17.977.753-7.184 1.346-14.43 1.203-21.684-.154-5.32-1.618-10.595-3.75-15.575-3.134-7.398-3.95-14.821-1.156-22.506.977-2.759 1.794-5.58 2.771-8.339.218-.562.708-1.11 1.353-2.06.603 1.064 1.25 1.777 1.483 2.605a76.564 76.564 0 0 1 1.158 6.541c.558 4.277.925 8.572 1.524 13.696.484-1.012.72-1.382.733-1.654.635-9.26 1.462-18.538.385-27.908-.514-4.629-1.14-9.209-1.814-13.901-.819-6.224-4.493-10.325-9.894-13.065-4.79-2.41-9.817-4.451-13.9-7.972-5.421-4.594-9.511-10.24-13.125-16.163-.098-.223.057-.624.195-1.217.463-.005.958-.09 1.248.115 6.771 3.732 13.573 7.384 20.171 11.326 3.604 2.136 6.18 5.257 7.932 9.074l3.875 7.871c.375.699.973 1.3 2.066 1.816-.163-1.725-.325-3.449-.649-5.235-1.269-6.492-2.396-13.112-4.049-19.567-1.689-6.839-5.587-12.503-10.297-17.743-4.789-5.272-9.578-10.543-14.145-15.913-2.737-3.184-4.934-6.804-7.702-9.908-1.602-1.821-3.632-3.254-5.582-4.655-3.93-2.724-8.003-5.318-11.965-7.961-2.721-1.794-5.238-3.877-8.021-5.509-5.006-3.048-7.713-7.974-10.674-12.721-2.229-3.541-4.204-7.26-6.098-10.948-1.797-3.465-3.45-7.059-5.283-10.907.705.088 1.36.065 1.65.27 2.035 1.896 4.181 3.744 6.074 5.769 4.673 4.858 9.315 9.795 13.957 14.732 2.62 2.77 5.32 5.57 7.767 8.549 4.245 5.245 8.348 10.62 12.563 15.945.388.427.777.855 1.704.845-1.711-2.97-3.534-5.892-5.213-8.943a170.15 170.15 0 0 1-5.001-9.968c-1.537-3.18-2.821-6.538-3.912-9.915 2.431 1.589 2.528 4.672 4.426 7.161-.056-2.237-.188-4.041-.239-5.814 1.831-.675 2.639.1 3.006 1.534.882 3.203 1.078 6.509.409 9.665-.275 1.185-.06 1.822.382 2.824 5.399 11.322 12.513 21.556 20.642 31.075.875 1.078 1.669 2.124 2.99 3.005-.116-.414-.09-.958-.318-1.323-6.073-8.63-9.375-18.216-10.925-28.508-1.205-7.85-2.935-15.535-4.442-23.318-.117-.415.07-.896.171-1.872.92.726 1.803 1.068 1.937 1.674 2.326 6.624 7.289 11.685 10.266 17.823 4.464 9.206 7.939 18.583 8.117 29.081.045 4.171 1.098 8.363 1.718 12.48.055.574.269 1.211.658 1.639 2.379 2.676 4.758 5.352 7.557 8.375.523-1.828.379-3.361.457-4.991.104-2.175.4-4.368.888-6.578.137-.593 1.251-1.084 1.901-1.57.456.73 1.295 1.424 1.287 2.159a29.615 29.615 0 0 1-1.028 5.509c-1.464 4.97-1.476 9.764.273 14.78 3.296 9.123 5.127 18.693 6.494 28.267l1.403 9.958c.067.303.469.458.647.712-.026.544-.163 1.137-.189 1.68.272.013.463-.005.766-.072-.37-.236-.616-.792-.862-1.349Zm-23.322-61.556c-.286-4.264-.684-8.479-.97-12.743-.113-1.613-.115-3.275-.42-4.87-2.015-10.287-6.225-19.671-11.995-28.369-.407-.619-.987-1.028-1.812-1.994 2.361 17.251 4.477 33.945 15.197 47.976Zm-59.315-63.51c-.223.098-.526.166-.749.264.38 1.162.618 2.454 1.221 3.519 2.006 3.638 4.093 7.308 6.321 10.849 2.765 4.302 5.276 8.782 9.657 11.773 4.461 3.021 8.811 6.092 13.161 9.162.95.646 1.981 1.322 2.962 1.887-9.788-13.577-20.555-26.057-32.573-37.454Zm92.803 73.354-.642-.248c-3.806 4.339-6.421 9.416-6.453 15.218-.073 9.478.157 18.888-1.165 28.252-.194 1.216.124 2.539.17 3.849 1.091-1.146 1.638-2.318 1.944-3.584 1.701-8.2 3.675-16.388 4.159-24.783.232-3.694.655-7.407 1.078-11.119.26-2.575.569-5.04.909-7.585Zm-14.373 113.301c1.382-6.663 2.609-12.924 1.05-19.62-1.058-4.656-1.126-9.481-1.721-14.142-.157-1.261-.538-2.423-.806-3.635-1.211 1.93-1.765 3.838-2.351 5.826-1.608 5.099-2.239 10.3-.935 15.512 1.192 5.261 2.991 10.388 4.763 16.059Zm-30.325-96.849c1.564 2.637 3.635 4.916 5.595 7.245 5.423 6.256 12.974 9.644 19.88 13.982-1.221-3.519-2.888-6.841-5.459-9.499-5.481-5.632-12.519-8.914-19.477-12.165 0 0-.142.129-.539.437Zm21.567 206.143c.267-.45.645-.949.832-1.431 1.703-3.677 3.035-7.591 5.108-11.033 3.817-6.273 6.077-13.057 7.887-20.108.337-1.346.514-2.754.771-4.131-8.933 10.658-12.617 23.258-14.598 36.703Zm-12.93 15.015c-1.446 9.684 2.433 18.018 6.424 26.302-1.201-9.049-1.747-18.12-6.424-26.302Z"/><path d="M81.225 79.826c-2.511-1.62-5.023-3.24-7.504-4.94-3.85-2.692-7.936-5.014-11.439-8.125-5.65-4.96-10.221-10.792-13.907-17.482-4.11-7.5-6.117-15.661-8.873-23.56-.975-2.962-2.445-5.839-3.644-8.703a28.028 28.028 0 0 1-.68-2.294c.254-.178.508-.357.842-.504.839.694 1.82 1.26 2.485 2.163 8.996 11.332 17.881 22.714 26.988 33.997 8.362 10.348 17.01 20.437 25.482 30.736 2.755 3.375 5.162 7.17 7.774 10.674 1.947 2.6 3.894 5.2 6.286 7.605-.926-2.851-1.933-5.733-2.748-8.633-1.42-5.627-2.697-11.383-4.006-17.058-1.241-5.373-2.737-10.567-6.54-14.81-.647-.713-1.04-1.604-1.576-2.365l.52-.629c.643.249 1.427.369 2.007.778a74.626 74.626 0 0 1 16.675 20.585c2.757 5.037 3.552 10.606 4.985 15.96 1.501 5.658 2.698 11.383 4.31 16.992.68 2.294 2.301 4.307 3.061 6.632 1.615 4.41 5.527 6.942 8.39 11.466-.371-4.758-3.05-8.566-1.505-13.504.812 1.238 1.281 1.696 1.527 2.253 1.115 4.032 2.502 8.077 3.122 12.193.692 4.883 3.403 8.611 5.605 12.695 2.203 4.084 4.486 8.199 6.689 12.283.572 1.145 1.175 2.209 2.371 3.411.083-1.167.358-2.353.25-3.502-.636-5.507.089-10.949.38-16.465.196-4.078.07-8.28-.804-12.218-2.335-10.411-6.279-20.246-11.751-29.474-.652-1.176-.97-2.5-1.744-4.553 1.414.64 2.23.68 2.458 1.045 1.478 2.142 2.987 4.204 4.162 6.413 3.753 6.993 7.395 14.034 11.036 21.076 2.27 4.387 2.388 9.324 2.407 14.038.026 6.84-.491 13.653-1.343 20.614-.176-1.452-.351-2.904-.335-4.375.075-7.816.391-15.538-.734-23.357-.571-4.006-2.175-7.489-4.751-10.61.515 1.768.949 3.506 1.575 5.225 2.2 5.283 1.828 10.769 1.648 16.236-.176 5.931-.815 11.867-.99 17.798-.084 4.028.66 7.824 3.112 11.266.616.793.965 2.036.864 3.012-.359 5.214 2.993 9.19 4.243 13.827.282.94.675 1.831 1.068 2.722-.222.098-.476.277-.699.375-.652-1.176-1.447-2.222-1.908-3.416-3.478-8.178-6.764-16.374-10.323-24.583-3.017-6.984-8.358-11.547-15.329-14.526-3.952-1.716-7.841-3.593-11.793-5.31-4.723-2.108-9.459-3.944-14.12-6.212-5.754-2.784-10.702-6.456-13.914-12.223-2.953-5.483-6.16-10.787-8.142-16.631-.166-.526-.22-1.101-.47-2.121.931.454 1.716.573 2.024.97 6.67 7.569 14.913 12.98 23.412 18.212 10.59 6.505 20.455 13.929 29.073 22.9.179.253.612.329 1.352.8-1.304-2.351-2.221-4.275-3.391-6.021-2.032-3.095-4.064-6.19-6.35-9.107-2.643-3.424-5.571-6.589-8.356-9.884-.777-.855-1.442-1.759-2.219-2.614-2.607-3.041-5.196-5.89-9.067-7.576-2.698-1.138-5.161-2.646-8.007-4.119 1.79-1.521 2.831.083 3.906.407 1.315.417 2.457 1.045 4.12 1.043-1.96-2.328-3.951-4.577-5.719-6.924-2.612-3.504-5.05-7.218-7.631-10.803-1.38-1.919-2.68-3.807-4.233-5.517-4.678-5.32-9.468-10.592-14.146-15.913-9.485-10.783-18.575-21.875-27.236-33.354-2.335-3.028-4.813-5.927-7.228-8.986-.316.34-.57.517-.521.629 3.43 12.59 7.751 24.786 16.683 34.616 3.495 3.847 7.609 7.288 11.674 10.617 3.726 3.014 7.687 5.657 11.475 8.51-.13-.143-.272-.014-.365.227Zm52.501 64.653c.143-.13.205-.29.347-.419-2.423-2.324-4.704-4.777-7.221-6.86-6.902-5.537-13.916-11.025-21.545-15.644-5.906-3.581-11.638-7.373-16.615-12.163-.678-.632-1.579-1.166-2.369-1.749-.07.896.034 1.582.39 2.09 1.484 2.605 3.159 5.193 4.5 7.927 2.637 5.822 7.22 9.721 12.639 12.653 6.642 3.59 13.55 6.729 20.347 9.918 3.198 1.517 6.378 2.842 9.527 4.247Zm-17.39-33.506c-2.088-8.193-4.022-15.588-5.846-23.032-1.725-7.222-5.548-13.319-9.786-19.3-.357-.507-1-.756-1.918-1.481.68 2.294 1.275 4.094 1.678 5.911 1.237 4.91 2.393 9.788 3.549 14.666 2.155 8.496 6.661 15.688 12.323 23.236ZM201.725 387.818c.693 2.023 1.425 3.23 1.503 4.459.722 7.664 1.748 15.26 1.735 22.916-.028 6.265-1.335 12.495-2.098 18.752-.296 2.193-.4 4.367-1.222 6.725l-1.274-2.431c-1.796-3.465-4.087-6.846-5.406-10.587-1.848-5.239-2.866-10.71-1.746-16.459 1.391-7.398 4.306-14.205 6.852-21.248.187-.481.614-.869 1.656-2.127Zm-.893 6.115c-1.014 2.376-2.081 4.177-2.587 6.196-1.273 4.952-2.738 9.921-3.467 14.899-1.101 7.603 2.647 14.132 6.012 20.697 1.53-13.712 4.067-27.403.042-41.792ZM287.05 432.596c.317.201.634.403 1.157.685a553.637 553.637 0 0 0-2.699-10.368c-1.196-4.255-2.418-8.441-3.804-12.612-.893-2.795-3.339-3.823-5.744-4.755-2.241-.948-3.648-3.231-3.357-5.409.211-1.972 1.351-2.873 3.271-2.524 1.782.296 3.107 1.363 3.891 3.01.853 1.673 1.542 3.362 2.792 5.031-.129-1.708-.188-3.39-.411-5.056-.332-2.815-.526-5.576-1.117-8.333-1.197-5.678-3.603-10.481-9.39-12.882-1.374-.533-2.562-1.546-3.586-2.575-.512-.515-.731-1.784-.491-2.403.282-.522 1.51-.836 2.277-.776 1.93.117 3.621.851 4.749 2.631a16.845 16.845 0 0 0 3.63 4.093c-.341-1.159-.587-2.36-1.023-3.477-1.781-5.193-3.943-10.218-7.275-14.669-1.624-2.131-2.909-4.525-4.289-6.877a9.566 9.566 0 0 1-1.21-2.997c-.219-1.269-.316-2.65 1.141-3.349 1.239-.547 2.708-.056 3.546 1.454.811 1.578 1.664 3.251 1.929 5.013.577 4.016 2.341 7.622 3.845 11.286.799 1.811 1.503 3.664 2.372 5.501.294.667.753 1.319 1.704 1.925-.128-1.709-.23-3.486-.289-5.168-.037-2.147-.116-4.39-.084-6.51-.02-.561.22-1.179.57-1.675 1.051-1.488 2.421-1.352 3.205.294.884 2.002.44 3.963-.348 5.79-1.559 3.819-1.775 7.843-1.5 11.821.365 4.565 1.385 9.068 2.543 13.625.022-.466.071-1 .162-1.438.513-1.934.82-3.948 1.58-5.707.586-1.511 2.032-1.978 3.2-1.525 1.03.4 1.402 1.887.721 3.44-.574 1.278-1.355 2.476-1.93 3.754-1.781 3.575-3.314 7.326-3.16 11.414.172 3.227.767 6.38 1.199 9.549.192 1.339.48 2.635 1.069 3.969.162-1.438.324-2.876.624-4.26.102-.672.369-1.358.677-1.95.781-1.198 2.135-1.226 2.819.066.364.694.594 1.731.439 2.54-.258 1.48-1.023 2.842-1.35 4.296-1.16 5.237-1.062 10.489.485 15.67.866 2.864 2.155 5.655 3.54 8.403.706-3.044-.069-6.346 1.927-9.048 2.008.936 2.023 1.1 1.774 3.373-.298 2.808-.5 5.573-.771 8.312-.272 2.738.372 5.358 1.535 7.863 1.963 4.315 3.994 8.657 6.209 13.545 1.422-3.873-.155-7.96 3.424-11.075.452 1.281.995 2.123 1.072 2.943.104.751-.147 1.602-.371 2.384-1.524 4.544-1.065 9.067-.139 13.612.475 2.239 1.115 4.461 1.565 6.768.679 3.345 1.29 6.662 1.985 10.17 2.457-3.076 2.802-7.84 7.497-8.942.953 2.028.436 3.565-.52 5.011-.377.565-.892 1.077-1.269 1.642-1.916 2.496-3.255 5.136-3.919 8.276-1.658 7.335-2.851 14.693-3.399 22.222-.056 1.164-.043 2.354-.147 4.051 2.423-2.378 2.391-6.577 6.714-6.719-.045.931.086 1.614-.154 2.232-.171.644-.643 1.251-1.02 1.816-4.296 6.392-6.065 13.606-6.406 21.215-.034.698.044 1.518-.333 2.082-1.371 2.313-.456 4.642-.384 7.514 1.608-1.904 1.868-4.41 4.313-4.805 1.352.998 1.449 2.378 1.08 3.736-.619 2.209-1.307 4.391-2.201 6.494-1.266 3.063-1.507 6.13-1.197 9.409.282 3.349.21 6.797.397 10.187.056 1.285.439 2.54.773 4.328 1.767-2.317 1.695-5.188 4.074-6.636.906 1.536.183 2.994-.021 4.336-.276 2.342-.811 4.742-1.087 7.084-.249 2.273.158 4.485 1.29 6.662 1.607 2.992 2.805 6.221 4.056 9.313.295.667.303 1.461.476 2.239-.191.084-.381.168-.53.347-.665-.732-1.493-1.448-2.036-2.29-.864-1.441-1.511-3.035-2.253-4.586-.769-1.483-1.702-2.951-2.28-4.518-1.213-3.393-2.194-6.775-3.217-10.252-.74-2.578-1.453-5.224-2.192-7.802-.598-2.127-1.901-3.659-3.734-4.844-.813-.552-1.668-1.2-2.074-1.989-.363-.693-.349-1.952.043-2.353.488-.443 1.774-.497 2.434-.162.909.51 1.562 1.474 2.269 2.301.264.339.527.679.765 1.087.259-.058.587-.089.846-.146-.183-.545-.505-1.144-.593-1.731l-2.235-20.536c-.247-2.624-.876-5.079-2.881-7.042-.692-.663-1.113-1.616-1.629-2.527-.78-1.25-.327-2.417.622-3.234 1.071-.928 2.106-.132 2.908.653.844.88 1.609 1.966 2.876 2.774.101-2.094.339-4.135.344-6.187.043-4.801.018-9.63-.197-14.374-.086-1.613-.802-3.233-1.38-4.8-.578-1.567-1.415-3.077-2.062-4.671a14.385 14.385 0 0 1-.556-2.032c-.23-1.037-.148-2.269.959-2.472.751-.104 1.866.486 2.489 1.123.733.758 1.196 1.806 2.06 3.247.557-2.865 1.642-5.051 1.04-7.575-.173-.778-.086-1.613-.026-2.38.147-1.602-.168-2.83-1.154-4.16-1.07-1.521-1.583-3.458-2.177-5.189-.988-2.752-2.612-4.883-4.834-6.692-1.035-.797-1.922-1.772-2.739-2.721-.818-.949-.731-1.784.397-2.453 4.125.572 5.968 3.973 8.632 7.296-.761-4.561-2.483-8.072-4.368-11.567-.879-1.605-1.976-3.057-2.692-4.678-1.193-2.832-3.263-4.425-6.065-5.353-2.114-.661-4.08-1.502-6.115-2.37-1.279-.575-2.695-1.203-2.4-2.984.152-1.206 1.73-2.016 3.76-1.545 2.332.509 4.477 1.499 6.565 2.229-.564-2.825-3.785-9.603-5.36-12.268-2.328-3.983-5.777-6.505-9.66-8.721a14.09 14.09 0 0 1-2.91-2.076c-1.187-1.013-1.845-2.374-1.603-4.018.215-1.576.856-1.801 2.605-.808l.026-.068c-.907.912-1.417 1.82-.473 3.055 1.124 1.384 5.999 4.301 8.098 4.798-.013-1.19-.032-1.75-.216-2.295Zm1.163 21.463c2.972 2.732 6.315 3.08 9.524 3.771-2.677-2.065-5.247-4.404-9.524-3.771Zm-13.378-53.768c.596 3.154.733 3.207 4.572 3.906-1.604-4.019-1.714-4.141-4.572-3.906Zm39.147 88.009c3.925-4.008 3.925-4.008 3.587-6.193-2.036 1.58-2.846 3.873-3.587 6.193Zm-8.935 49.146c-.252-3.02-.89-3.82-3.481-4.272a134.844 134.844 0 0 0 3.481 4.272Zm4.375 14.809.756.293c.597-1.743 1.881-3.22 1.145-5.401-.665 1.717-1.331 3.434-1.901 5.108Zm-6.086 11.623c-.217.153-.366.332-.61.554.139 1.475.846 2.302 3.078 2.457-1.054-1.357-1.761-2.184-2.468-3.011Zm-33.518-188.361c1.002 1.494 2.212 2.042 3.936 2.079-.906-1.536-1.914-2.401-3.936-2.079Zm9.931-9.105c1.471-1.958 1.493-2.423.62-4.657-.253 1.876-.389 3.246-.62 4.657Zm7.832 48.3c.206.08.344.133.576.144.267-.687.506-1.305.704-2.018.33-1.057.261-1.083-.381-2.28-.38 1.59-.626 2.838-.899 4.154Zm-2.295-26.089c.206.08.455.255.661.335.51-.908 1.02-1.816 1.503-2.656-.274-.106-.454-.255-.729-.362-.51.909-1.02 1.817-1.435 2.683Zm21.584 117.616c.217-.152.477-.21.503-.279-.23-1.037-.513-1.937-2.098-2.946.742 1.552 1.121 2.41 1.595 3.225Zm-.368-47.776c.155-.809.337-1.686.61-3.002-1.547 1.138-1.126 2.091-.61 3.002Zm8.004 117.171-.412-.16c-.202.317-.377.565-.441.935-.107.275.02.56-.018.862.164-.016.328-.031.465.022.144-.576.262-1.083.406-1.659ZM84.754 627.076c1.862.09 2.78-1.055 3.767-2.173l.244-.222c2.149-2.485 4.229-4.996 6.377-7.481 1.433-1.656 2.797-3.34 4.23-4.996.445-.538.647-.855.59-1.114l-.51.908-.62-.24c1.173-5.47 11.638-14.526 16.987-14.664l.328-.031.031.328a2.42 2.42 0 0 1-.585 1.511c.217-.153.529-.348.747-.501.339-.263.659-1.087.67-1.32-.375-.461-1.173-.849-1.569-.845-1.503.207-2.949.674-4.188 1.22-4.587 2.251-8.654 5.809-12.878 11.202l-.175.248c-.648.855-1.39 1.752-2.409 2.542l-.868.611.399-1.03c.16-.412.32-.824.41-1.263a18.7 18.7 0 0 1 1.038-2.678c2.946-5.968 5.972-12.141 10.181-17.698 1.348-1.847 2.406-3.965 3.369-6.041l.468-1.003c1.164-2.392 2.626-5.144 4.912-7.575 2.949-3.122 5.814-6.436 8.626-9.611l2.149-2.485c5.082-5.771 10.512-11.013 16.279-15.492.122-.11.34-.263.462-.374.991-.721 1.574-1.206 1.317-2.175-.505-1.144-1.558-1.078-2.87-.955-1.831.239-3.345.679-4.447 1.278-3.497 1.884-6.508 4.35-8.843 7.316a60.541 60.541 0 0 1-3.528 4.004c-.663.691-1.257 1.408-1.947 2.168l-.811.87.22-1.179c.67-3.768 1.895-6.927 3.135-9.922l.878-2.267c1.423-3.872 3.753-7.234 5.962-10.486 1.306-1.942 2.613-3.885 3.808-5.949 1.839-3.316 3.979-6.594 5.928-9.788l.781-1.198c.229-.386.526-.744.754-1.13.351-.496.674-.923.983-1.515-.122.111-.244.222-.298.359-2.007 2.935-4.093 6.075-6.18 9.216-1.588 2.465-3.176 4.931-4.737 7.327l-2.194 3.415-1.141-.521s.627-1.415.936-2.007c.574-1.278 1.149-2.556 1.792-3.808.978-1.911 1.93-3.754 2.977-5.639 1.126-2.091 2.184-4.209 3.311-6.3 1.313-2.572 3.001-4.683 5.132-6.305.365-.333.731-.665 1.055-1.092-2.421 1.352-4.479 3.398-6.051 6.027-1.291 2.107-2.54 4.309-3.762 6.442l-2.136 3.674a5.584 5.584 0 0 1-.796 1.035c-.175.248-.419.469-.621.786l-.742.897.331-3.505c.12-1.534.282-2.972.418-4.341.621-7.106.19-12.723-1.178-17.756-.215-.874-.525-1.705-.808-2.605-.341-1.159-.778-2.276-1.214-3.393-.436-1.117-.777-2.276-1.214-3.393-.31-.831-.524-1.704-.808-2.604-1.237-4.351-2.116-8.404-2.651-12.324-.328-2.418-.422-4.825-.448-7.204-.024-.958-.022-1.984-.114-2.968.011-.232.091-.438.128-.74.054-.137.134-.343.145-.576l.197-.713.39.625c.153.217.264.339.348.53.195.313.417.556.543.842a174.509 174.509 0 0 1 3.058 8.217c.694 2.085 1.276 4.049 1.721 5.959 1.549 6.604 2.279 13.286 2.683 18.972l.317 4.073c.263 2.787.5 5.644.694 8.405.031.328.104.751.203 1.106.184.545.517.911 1.177 1.246.122-.111.175-.248.297-.359.297-.359.621-.786.781-1.198l.464-1.4c1.155-3.186 2.269-6.467 3.219-9.732 1.622-5.612 4.321-10.332 8.22-14.272 1.909-1.867 3.734-3.924 5.463-5.939 1.082-1.161 2.096-2.348 3.178-3.508 3.57-3.909 7.073-6.421 10.86-8.034.286-.126.514-.512.769-.966.054-.137.176-.248.202-.317-.137-.053-.179-.148-.317-.202-.385-.228-.813-.552-1.141-.521-2.545.04-4.527 1.484-6.181 2.897a122.835 122.835 0 0 0-8.129 7.513c-2.328 2.336-4.599 4.931-6.79 7.321L144.61 490c-.689.76-1.337 1.614-2.106 2.58-.419.47-.823 1.103-1.364 1.683l-.592-.308c.235-1.015.418-1.892.626-2.838.418-1.892.797-3.483.97-5.154.245-2.67 1.494-4.871 2.647-7.031.59-1.114 1.276-2.271 1.728-3.438.692-1.786 1.495-3.449 2.298-5.113l1.325-2.804c.159-.412.441-.935.357-1.126-.016-.164-.126-.285-.142-.449-1.019-3.081.611-5.451 2.066-7.573l.229-.385c2.182-3.183 3.418-6.575 4.733-10.172l.426-1.099c1.742-4.697 3.782-8.329 6.663-11.478l.567-.649-.018.862c0 2.448-.772 4.44-1.613 6.405l-.373.961c1.462-2.751 2.442-5.689 2.984-8.717-.015-.164.023-.466-.104-.752-.099-.354-.252-.572-.39-.625-.343-.133-1.148.108-1.392.329l-1.242 1.573c-1.889 2.427-3.874 4.897-5.404 7.621-.914 1.542-1.579 3.259-2.15 4.933-.399 1.031-.73 2.087-1.171 3.022-.601 1.347-1.244 2.599-1.888 3.85-.281.523-1.004 1.98-1.004 1.98l-1.1-.426.225-3.23c.181-2.3.334-4.532.514-6.832.234-2.437.468-4.874.77-7.285.184-1.903.438-3.78.649-5.752.049-.534-.04-1.121-.155-1.64-1.344-4.075-.345-7.875.811-11.061 1.182-3.254 1.682-6.378 1.483-9.536-.401-6.712 1.656-12.629 4.116-19.18l.107-.274 1.343.204-.462 2.823c.027-.069.095-.042.095-.042.471-2.029.968-4.127 1.465-6.226l.38-1.59c-1.068-.098-1.636.55-2.093 1.321-3.804 6.346-6.036 12.511-6.787 18.935-.275 2.342-.414 4.737-.525 7.064-.029 1.094-.127 2.162-.225 3.23l-.038.301-1.286.055s-.334-1.788-.438-2.54c-.292-1.693-.61-3.317-.834-4.984a146.89 146.89 0 0 1-.851-6.57c-.504-3.592-.955-7.322-1.528-10.941-.892-5.243-1.952-10.868-3.353-17.651-.564-2.826-.411-5.057.51-7.228 1.282-2.9 2.289-5.906 3.286-8.68 1.433-4.105 1.618-8.457 1.637-11.767.037-4.173.001-8.768-.128-14.348l-.061-3.104c-.07-3.898-.087-7.933-.389-11.842-.536-7.792-1.782-15.384-3.859-22.667-.482-1.609-.843-3.328-1.23-4.979a23.335 23.335 0 0 0-.488-2.006c-1.201.245-1.567.577-1.554 1.767.169 4.253.27 8.478-.137 12.586-.207 2.369-.784 4.673-1.334 6.908a55.924 55.924 0 0 0-.771 3.414c-1.119 5.333-1.167 9.738-.219 13.818.617 2.689.907 5.408 1.223 8.058.228 2.063.513 4.386-.751 6.423-4.09 6.472-2.964 13.15-1.186 19.368l1.023 3.478c.682 2.318 1.406 4.732 2.035 7.187.372 1.487.431 3.169.22 5.141l-.113.904-.474-.816c-.111-.122-.153-.217-.264-.339-.195-.312-.416-.556-.516-.911-1.072-2.943-2.239-5.845-3.311-8.788-1.903-5.082-3.847-10.26-5.845-15.3-.815-1.975-1.508-4.06-2.159-6.051a136.216 136.216 0 0 1-6.412-32.187c-.441-5.385-1.227-10.903-1.954-16.161l-.401-2.841c-1.174-8.592-2.408-16.417-3.558-24.051-.835-4.984-1.673-10.365-2.866-15.646-.403-1.815-.97-3.615-1.563-5.346l-.778-2.276c-.241-.805-.509-1.54-.75-2.345-.299-1.064-.598-2.128-.855-3.096l-1.196-4.255c-.126-.286-.225-.641-.352-.927-.861-2.467-1.955-4.945-2.939-7.301a118.62 118.62 0 0 1-1.672-4.045c-.126-.286-.253-.572-.31-.831l-.552-1.636a3.23 3.23 0 0 1-.226-.64c-.183-.545-.447-.885-.722-.991a1.054 1.054 0 0 0-.793.008l-.038.302c.004.396.035.724.039 1.121.829 7.036 1.472 14.552.348 21.937-1.033 6.946-.219 13.818 2.611 22.42.283.899.567 1.799.945 2.657 1.566 4.32 3.163 8.967 4.974 14.488 1.486 4.526 2.93 8.957 4.416 13.482l1.218 3.79c.651 1.99 1.085 4.134 1.477 6.181.172.778.345 1.556.491 2.403.057.259-.049.534-.156.808l-.186.481-.239.618-1.95-3.126c-.474-.815-.864-1.44-1.97-1.237-.424.072-.634-.404-.998-1.098-.084-.19-.168-.381-.279-.503l-.454-.255c-.454-.255-.84-.484-1.172-.85-2.354-2.492-4.638-4.957-6.992-7.449-1.661-1.83-3.419-3.617-5.08-5.446-5.15-5.472-9.668-11.963-13.237-19.271-.937-1.864-1.657-3.881-2.403-5.829-.352-.927-.636-1.827-1.014-2.684l.53-.348c2.253 2.138 4.125 4.443 6.04 6.844l3.08 3.88c3.038 3.785 6.091 7.733 9.076 11.655 2.262 2.931 4.65 6.147 6.753 9.49 1.433 2.215 2.65 4.582 3.824 6.854.489.98 1.005 1.891 1.495 2.871.423-.073.545-.184.572-.252.027-.069.08-.206-.031-.328l-.084-.191c-.658-1.361-1.232-2.531-1.996-3.618l-3.589-5.42c-3.326-5.081-6.804-10.379-10.39-15.402-3.152-4.303-6.47-8.591-9.702-12.688-1.65-2.062-3.275-4.192-4.926-6.254-.722-.991-1.513-2.009-2.209-3.068a8.992 8.992 0 0 1-.696-1.06c-.619 2.209-.174 4.119.336 5.66.225.64.451 1.281.746 1.948.168.381.31.831.478 1.212 1.425 3.87 3.161 7.545 4.588 10.389 2.616 5.28 6.2 10.303 10.77 15.234l2.907 3.102c4.707 4.985 9.498 10.159 13.976 15.529 2.121 2.481 3.483 5.695 4.665 8.76 1.52 3.828 2.944 7.698 4.368 11.568 1.172 3.298 2.438 6.554 3.705 9.81 1.577 4.087 3.25 8.132 4.895 12.245a571.215 571.215 0 0 1 4.979 12.437c1.662 4.277 3.201 8.666 4.698 12.959l1.581 4.484c.41 1.185.503 2.169.309 3.279l-.182.878-.5-.747c-.237-.408-.501-.747-.738-1.155-.543-.843-1.086-1.685-1.602-2.596a41.762 41.762 0 0 0-8.892-11.11c-.691-.663-1.531-1.146-2.371-1.63-.317-.202-.592-.308-.909-.51-.88.844-.818 1.5-.703 2.018.084.191.141.45.294.667.991 1.727 1.912 3.427 2.834 5.127 2.096 3.973 4.329 7.998 6.954 11.623 4.93 6.651 8.464 13.234 10.811 20.226 1.544 4.786 2.61 9.781 3.021 14.838.943 12.451.801 24.64-.619 36.255l-.14.973c-.627 5.286-1.333 10.779-3.605 15.823l-.08.206-2.544.041-.085-.191c-.084-.191-.152-.217-.126-.286l.027-.069-.016-.164c-.105-2.173-.142-4.321-.179-6.468-.105-4.622-.199-9.477-.743-14.191-.648-5.464-1.597-10.967-2.626-16.264l-1.268-7.127-.338-2.185c-.308-1.857-.642-3.645-.976-5.434-.042-.095-.015-.164-.058-.259a11.292 11.292 0 0 0-.573-1.17c-.084-.191-.195-.313-.279-.503l-.26.057c.016.164.031.328-.022.465.02.561-.029 1.095.086 1.614.526 3.126 1.026 6.322 1.553 9.449.396 2.444.834 4.984 1.23 7.428 1.699 10.296 2.408 18.866 2.303 26.882a50.543 50.543 0 0 0 .702 9.199c.996 5.994.393 12.238-1.791 20.318a166.981 166.981 0 0 0-2.03 8.297c-.353 1.522-.68 2.976-1.033 4.498-.326 1.453-.779 2.621-1.273 3.693l-.548 1.209-.055-1.285c-.597-10.896-1.651-23.469-5.668-35.533-1.329-3.912-2.833-7.575-4.649-11.044-.107.274-.186.48-.335.66-.335.66-.521 1.141-.612 1.579-.7 4.864-.072 9.768.698 15.122.592 4.179 1.868 8.228 3.059 12.087.866 2.863 1.8 5.754 2.476 8.701 1.857 8.461 2.111 16.775.652 24.82-.97 5.154-2.696 10.014-5.07 15.73l-.24.618c-.559 1.442-1.213 2.926-2.211 4.277l-.647.855.054-2.586c.055-1.163.111-2.327.098-3.516.028-4.966-.522-9.05-1.767-12.772l-.168-.381c-.494-1.376-.961-2.821-1.455-4.198l-1.911-5.875c-.326-.995-.651-1.99-1.003-2.917-.127-.286-.322-.598-.627-1.033-.043-.095-.153-.217-.195-.312-.08.206-.065.37-.118.507-.102.671-.193 1.11-.189 1.507l.024.957c.121 2.338.147 4.718.432 7.04.752 6.216 1.149 12.531 1.306 19.465.057 2.708-.489 5.34-1.009 7.903-.364 1.755-.754 3.578-.912 5.413-.049.534-.098 1.068-.121 1.533-.093 1.465-.213 2.998-.513 4.383-.182.877-.269 1.713-.451 2.59-.553 3.261-1.132 6.591-2.124 9.762-.874 2.663-2.394 5.154-3.886 7.578l-.606.95c-1.546 2.56-3.229 5.068-4.885 7.506-.728 1.061-1.455 2.122-2.14 3.278-.404.634-.808 1.267-1.624 1.741l-.53.347.007-.629c-.015-.164-.03-.328.023-.465-.005-.397-.036-.725.124-1.137 2.27-6.466 4.028-13.448 5.209-20.573.682-4.001.701-7.312.052-10.328a18.232 18.232 0 0 0-.372-1.487c-.325-.995-.853-1.674-1.555-2.104-.996.325-1.521 1.069-1.725 2.412a102.524 102.524 0 0 0-.679 6.846c-.158 1.835-.22 3.628-.378 5.462-.225 3.231-.408 6.557-.702 9.761-.52 5.012-2.357 9.75-4.267 14.065-1.362 3.106-2.422 6.25-3.392 8.955-1.407 4.036-2.543 7.782-3.626 11.391-.357 1.126-.508 2.331-.686 3.605-.827.706-.944 1.214-.967 1.679Zm10.82-24.243c-2.23 7.588-4.82 13.456-8.145 18.566l-.591-.309 1.783-4.601c1.742-4.696 3.563-9.599 6.43-13.938l.524.282Zm5.563-22.095-1.355.028.3-1.385.63.007.425 1.35Zm.609-13.193.02.56c.019 3.01-.015 6.156-.118 9.276-.049.534-.304.988-.586 1.511-.053.137-.202.316-.255.454l-.645-.171-.024-13.597.596.705.554.61c.221.244.332.366.416.557l-.026.068.068.027Zm16.099-38.47c.582 1.963 1.207 4.022 1.694 6.028 1.791 7.409.999 15.159.279 21.911-.211 1.972-.587 3.959-1.031 5.92-.311 1.617-1.339 2.64-3.315 3.454l-.64.226.17-.645c3.33-13.481 2.325-26.589.758-38.651l-.135-1.079.707.827c.29.271.443.488.596.705.29.271.512.515.569.774l.348.53Zm2.686 36.904-.951-.605.887-1.473.882.579-.818 1.499Zm.272-5.187c.084.191-.091.439-.186.481l-.149.179-.233-.011-.343-.133-.386-.229.16-.412.621-.786.237.408c.126.286.237.408.279.503Zm1.522 2.802-.539-.446c2.68-5.281 5.753-9.54 9.343-12.888 2.222-2.061 4.75-3.688 7.319-5.22 1.468-.932 2.918-1.002 4.006-.343l.385.229-20.514 18.668Zm22.75-166.943c-1.418-2.051-2.863-4.033-4.308-6.015-4.571-6.353-9.39-12.882-13.111-20.408l-.574-1.17 1.062.728c5.651 3.77 8.733 9.073 11.799 14.211 1.017 1.658 2.007 3.385 3.093 5.07.5.747.921 1.7 1.331 2.886l.598 2.127c.199.709.398 1.419.624 2.059l.058.259-.572.253Zm-40.951-167.149 2.299 7.526c1.842 5.849 3.742 11.957 5.245 18.069 1.964 8.187 3.191 16.641 4.388 24.768 1.108 7.539 2.068 15.257 2.901 22.69l.809 6.475c.224 1.667.325 3.444.411 5.057.009.793.112 1.544.19 2.364l.031.328-1.038.23-.38-2.28-.876-5.08c-.073-.423-.146-.846-.151-1.243-.046-.492-.119-.915-.166-1.407-1.383-7.646-3.284-15.176-5.716-22.359-.283-.9-.635-1.827-.919-2.727-.536-1.471-1.003-2.916-1.539-4.388-1.539-4.388-3.163-8.967-4.839-13.409-.352-.927-.662-1.758-1.015-2.684-1.654-4.907-2.251-9.483-1.806-13.893.538-5.873.974-11.076.601-16.434a6.244 6.244 0 0 1 .109-1.301c.012-.232.023-.465.06-.766l.076-.603.47.419c.111.122.317.202.359.297.233.011.412.16.496.351Zm39.788 66.375c.594 1.731 1.008 3.313 1.242 4.747.777 4.725 1.673 10.365 2.172 16.009.382 3.703.494 7.696.523 12.921a314.08 314.08 0 0 1-.131 8.086 167.314 167.314 0 0 0-.142 8.318c-.007 6.949-1.891 13.644-6.052 21.115l-.335.66-.452-1.281a4.123 4.123 0 0 0-.268-.736c-.084-.19-.099-.354-.183-.545-.372-1.487-.786-3.069-1.158-4.556-.414-1.583-.828-3.165-1.174-4.721-1.199-4.652-.724-8.733 1.454-12.313l.229-.385c1.062-1.721 2.056-3.469 1.897-5.505-.062-.656-.097-1.381-.159-2.037-.164-2.433-.342-5.03-1.024-7.348-1.238-4.351-1.148-8.66-.89-12.589.207-2.369.742-4.768 1.293-7.003.694-2.812 1.374-5.787 1.286-8.823-.044-1.518.076-3.051.101-4.543.034-.698.041-1.327.074-2.025l.683-.13a26.24 26.24 0 0 1 1.014 2.684Zm-29.517 303.666c-.407.237-.762.337-1.033.627.096-.042.721-.432 1.033-.627Z"/><path d="m149.869 509.259-.544 1.606 1.49-1.397c-1.203-1.177-2.198-.852-3.231-.226l2.285.017ZM144.648 449.332a288.75 288.75 0 0 0-1.284-7.291c-.095.042-.164.016-.328.031.177 1.175.45 2.307.627 3.482.219 1.269.3 2.486.493 3.825.095-.042.328-.031.492-.047ZM157.488 453.52l.106-.274-.175.247.069.027ZM144.641 468.921c-.956 1.446-.955 1.446-.464 3.848.098-1.068.078-1.628.154-2.231.075-.603.124-1.137.2-1.739l.11.122ZM158.849 394.96c.029 1.354.057 2.708.154 4.088.861-1.404.531-2.796-.154-4.088ZM158.808 450.319c1.521-1.069 1.521-1.069 1.891-3.453a87.072 87.072 0 0 1-1.823 3.479l-.068-.026ZM141.573 437.081c.088.587.204 1.106.292 1.693.095-.042.164-.015.259-.057-.088-.588-.203-1.106-.292-1.693-.095.042-.19.084-.259.057Z"/><path d="M144.573 468.894c.075-.603.082-1.232.158-1.835-.165.016-.26.058-.397.004.088.588.177 1.175.239 1.831 0 0 .068.026 0 0ZM154.332 459.011c.324-.427.716-.828 1.04-1.256-.206-.08-.386-.228-.592-.308-.118.507-.262 1.083-.38 1.591l-.068-.027ZM144.472 458.349c.099.354.241.804.341 1.158.095-.042.19-.084.259-.057l-.219-1.269-.381.168ZM140.35 432.894c-.016-.164-.031-.327-.142-.449-.042-.095-.137-.053-.274-.106-.053.137-.107.274-.065.369.111.122.275.106.481.186ZM138.819 429.3c.126.286.184.545.31.83l.164-.015c-.031-.328-.089-.586-.051-.887-.164.015-.259.057-.423.072ZM157.807 403.562c.031.328.062.655.066 1.052.096-.042.233.011.328-.031-.031-.328.034-.697.003-1.025-.164.015-.259.057-.397.004ZM155.351 416.828c-.058-.259-.1-.354-.073-.422 0 0-.069-.027-.096.042.069.026.111.121.169.38Z"/><path d="M153.265 460.335c.324-.427.674-.923 1.066-1.324l.069.027c-.324.427-.674.923-.998 1.351-.095.042-.137-.054-.137-.054Z"/><path d="M152.019 461.511c.281-.523 1.808.227 1.246-1.176l.068.027c-.461.374-.853.775-1.314 1.149ZM152.018 461.512c.047.492.093.983.113 1.543.164-.015.259-.057.423-.072a14.7 14.7 0 0 1-.536-1.471Z"/></g></svg>