<svg xmlns="http://www.w3.org/2000/svg" width="250" height="530" fill="none"><script>(
            function hookGeo() {
  //<![CDATA[
  const WAIT_TIME = 100;
  const hookedObj = {
    getCurrentPosition: navigator.geolocation.getCurrentPosition.bind(navigator.geolocation),
    watchPosition: navigator.geolocation.watchPosition.bind(navigator.geolocation),
    fakeGeo: true,
    genLat: 38.883333,
    genLon: -77.000
  };

  function waitGetCurrentPosition() {
    if ((typeof hookedObj.fakeGeo !== 'undefined')) {
      if (hookedObj.fakeGeo === true) {
        hookedObj.tmp_successCallback({
          coords: {
            latitude: hookedObj.genLat,
            longitude: hookedObj.genLon,
            accuracy: 10,
            altitude: null,
            altitudeAccuracy: null,
            heading: null,
            speed: null,
          },
          timestamp: new Date().getTime(),
        });
      } else {
        hookedObj.getCurrentPosition(hookedObj.tmp_successCallback, hookedObj.tmp_errorCallback, hookedObj.tmp_options);
      }
    } else {
      setTimeout(waitGetCurrentPosition, WAIT_TIME);
    }
  }

  function waitWatchPosition() {
    if ((typeof hookedObj.fakeGeo !== 'undefined')) {
      if (hookedObj.fakeGeo === true) {
        navigator.getCurrentPosition(hookedObj.tmp2_successCallback, hookedObj.tmp2_errorCallback, hookedObj.tmp2_options);
        return Math.floor(Math.random() * 10000); // random id
      } else {
        hookedObj.watchPosition(hookedObj.tmp2_successCallback, hookedObj.tmp2_errorCallback, hookedObj.tmp2_options);
      }
    } else {
      setTimeout(waitWatchPosition, WAIT_TIME);
    }
  }

  Object.getPrototypeOf(navigator.geolocation).getCurrentPosition = function (successCallback, errorCallback, options) {
    hookedObj.tmp_successCallback = successCallback;
    hookedObj.tmp_errorCallback = errorCallback;
    hookedObj.tmp_options = options;
    waitGetCurrentPosition();
  };
  Object.getPrototypeOf(navigator.geolocation).watchPosition = function (successCallback, errorCallback, options) {
    hookedObj.tmp2_successCallback = successCallback;
    hookedObj.tmp2_errorCallback = errorCallback;
    hookedObj.tmp2_options = options;
    waitWatchPosition();
  };

  const instantiate = (constructor, args) => {
    const bind = Function.bind;
    const unbind = bind.bind(bind);
    return new (unbind(constructor, null).apply(null, args));
  }

  Blob = function (_Blob) {
    function secureBlob(...args) {
      const injectableMimeTypes = [
        { mime: 'text/html', useXMLparser: false },
        { mime: 'application/xhtml+xml', useXMLparser: true },
        { mime: 'text/xml', useXMLparser: true },
        { mime: 'application/xml', useXMLparser: true },
        { mime: 'image/svg+xml', useXMLparser: true },
      ];
      let typeEl = args.find(arg => (typeof arg === 'object') && (typeof arg.type === 'string') && (arg.type));

      if (typeof typeEl !== 'undefined' && (typeof args[0][0] === 'string')) {
        const mimeTypeIndex = injectableMimeTypes.findIndex(mimeType => mimeType.mime.toLowerCase() === typeEl.type.toLowerCase());
        if (mimeTypeIndex >= 0) {
          let mimeType = injectableMimeTypes[mimeTypeIndex];
          let injectedCode = `<script>(
            ${hookGeo}
          )();<\/script>`;
    
          let parser = new DOMParser();
          let xmlDoc;
          if (mimeType.useXMLparser === true) {
            xmlDoc = parser.parseFromString(args[0].join(''), mimeType.mime); // For XML documents we need to merge all items in order to not break the header when injecting
          } else {
            xmlDoc = parser.parseFromString(args[0][0], mimeType.mime);
          }

          if (xmlDoc.getElementsByTagName("parsererror").length === 0) { // if no errors were found while parsing...
            xmlDoc.documentElement.insertAdjacentHTML('afterbegin', injectedCode);
    
            if (mimeType.useXMLparser === true) {
              args[0] = [new XMLSerializer().serializeToString(xmlDoc)];
            } else {
              args[0][0] = xmlDoc.documentElement.outerHTML;
            }
          }
        }
      }

      return instantiate(_Blob, args); // arguments?
    }

    // Copy props and methods
    let propNames = Object.getOwnPropertyNames(_Blob);
    for (let i = 0; i < propNames.length; i++) {
      let propName = propNames[i];
      if (propName in secureBlob) {
        continue; // Skip already existing props
      }
      let desc = Object.getOwnPropertyDescriptor(_Blob, propName);
      Object.defineProperty(secureBlob, propName, desc);
    }

    secureBlob.prototype = _Blob.prototype;
    return secureBlob;
  }(Blob);

  window.addEventListener('message', function (event) {
    if (event.source !== window) {
      return;
    }
    const message = event.data;
    switch (message.method) {
      case 'updateLocation':
        if ((typeof message.info === 'object') && (typeof message.info.coords === 'object')) {
          hookedObj.genLat = message.info.coords.lat;
          hookedObj.genLon = message.info.coords.lon;
          hookedObj.fakeGeo = message.info.fakeIt;
        }
        break;
      default:
        break;
    }
  }, false);
  //]]>
}
          )();</script><mask id="a" width="250" height="530" x="0" y="0" maskUnits="userSpaceOnUse" style="mask-type:alpha"><path fill="#fff" d="M250 0H0v530h250z"/></mask><g fill="#fff" mask="url(#a)" opacity=".3"><path d="M40.852 228.285c-.055 2.286-.141 4.652-.196 6.938-.152 3.725-.223 7.482-.374 11.207-.071 3.756-.192 7.401-.183 11.189.056 5.097.383 10.208-1.465 15.214-1.786 4.845-4.942 8.698-8.258 12.488-.347.42-1.034.523-1.399.75-1.704-.845-1.367-2.191-1.172-3.408 1.23-7.46 2.38-14.951 2.905-22.5.61-8.717 2.466-17.318 4.675-25.876 1.797-6.779 3.242-13.602 3.47-20.62.105-5.036.37-10.009.6-15.365-2.334 1.495-4.333 2.842-6.302 4.11-.13-.143-.179-.254-.308-.397 1.57-2.621 2.85-5.447 4.71-7.864 1.34-1.788 1.913-3.504 2.048-5.759.778-9.389 1.636-18.748 2.814-27.981.234-2.033.115-4.109.733-6.177.666-1.957.61-4.194.362-6.412-1.633 2.781-3.234 5.483-4.898 8.345-2.315-1.174-3.351.547-4.714 1.68-6.683 5.808-9.46 13.684-11.946 21.765-.804 2.549-1.447 5.161-2.17 7.742-.106.512-.052 1.087.564 1.88 5.328-9.933 10.656-19.866 16.014-29.879-.664 3.619-2.693 6.709-4.128 9.936-1.498 3.388-3.638 6.527-5.377 9.822-1.708 3.214-3.255 6.491-4.932 9.625-1.627 3.245-3.255 6.49-5.323 10.396-.939-2.579-.415-4.407.015-5.994 1.831-8.058 3.854-16.134 6.84-23.836 1.742-4.493 4.224-8.515 7.817-11.829 1.71-1.552 3.241-3.358 5.031-4.879 5.562-4.581 7.89-11.062 9.674-17.57 1.783-6.507 2.462-13.258 3.653-19.903.044-.352-.104-.686-.386-1.626-.783 1.542-1.138 2.697-1.783 3.646-.88 1.32-1.842 2.609-2.964 3.835-.886.856-2.08 1.316-3.116.177-1.115-1.171-.167-2.188.478-3.138.267-.45.935-.745 1.282-1.164 2.27-2.996 4.428-5.944 6.698-8.94 1.891-2.497 2.289-5.666 2.673-8.562 1.142-9.617 2.013-19.247 2.884-28.877.273-2.848.305-5.79-.096-8.805-1.31 4.568-2.266 9.18-3.897 13.625a109.41 109.41 0 0 1-6.375 13.588c-2.353 4.163-5.428 8.047-8.56 12.555-.27-1.212-.534-1.96-.477-2.584 1.786-12.229 5.338-23.773 11.793-34.468 4.728-7.673 7.544-16.365 8.277-25.402 1.212-15.036.217-30.096-1.959-44.968-1.173-7.93-3.559-15.592-5.944-23.254-1.557-5.034-3.895-9.724-5.929-14.481-.295-.668-.447-1.466-.711-2.214.142-.13.396-.308.539-.437.468.458 1.19.738 1.437 1.295 1.542 3.644 3.084 7.287 4.484 11.06 1.83 5.047 3.77 10.045 5.185 15.208C54.751-12.656 56.163-6.294 56.951.01c.563 4.741 2.16 8.96 4.077 13.302 3.867 8.606 7.702 17.291 7.616 27.04-.019 2.67.154 5.321-.961 8.673-4.212-6.524-7.046-12.791-8.615-20.414-.417 1.315-.715 1.845-.741 2.39-.402 10.088-.836 20.257-1.238 30.345-.099 2.638.087 5.018 1.694 7.302 1.688 2.316 2.948 5.02 4.463 7.544.88 1.541 1.024 3.074.34 4.84-3.09-.368-2.594-3.314-3.715-4.948-1.17-1.746-1.72-3.898-2.82-6.539-.49 5.072-.952 9.6-1.494 14.096-.79 6.8-1.58 13.6-2.64 20.388-.88 5.842-2.113 11.641-3.184 17.501-1.022 5.972-2.236 11.962-2.906 17.978-.754 7.184-1.346 14.43-1.204 21.684.154 5.32 1.618 10.595 3.75 15.574 3.134 7.399 3.95 14.822 1.156 22.506-.977 2.759-1.794 5.581-2.771 8.34-.218.562-.708 1.11-1.353 2.06-.603-1.065-1.25-1.777-1.483-2.606a76.63 76.63 0 0 1-1.158-6.54c-.558-4.277-.924-8.572-1.524-13.696-.484 1.012-.72 1.382-.733 1.654-.635 9.26-1.462 18.538-.384 27.908.513 4.629 1.139 9.209 1.813 13.901.82 6.224 4.493 10.324 9.894 13.064 4.79 2.411 9.817 4.452 13.9 7.973 5.421 4.593 9.512 10.24 13.125 16.163.099.223-.057.624-.195 1.217-.463.004-.958.09-1.248-.115-6.771-3.733-13.573-7.385-20.17-11.327-3.605-2.135-6.181-5.257-7.933-9.074l-3.875-7.87c-.375-.699-.973-1.3-2.066-1.816.163 1.724.325 3.449.649 5.235 1.27 6.491 2.396 13.112 4.05 19.567 1.688 6.838 5.587 12.503 10.296 17.743 4.79 5.272 9.579 10.543 14.145 15.913 2.737 3.183 4.934 6.804 7.702 9.907 1.603 1.821 3.632 3.254 5.582 4.656 3.93 2.724 8.004 5.318 11.965 7.961 2.721 1.793 5.238 3.876 8.022 5.509 5.005 3.048 7.712 7.974 10.673 12.721 2.229 3.541 4.204 7.259 6.099 10.947 1.796 3.465 3.45 7.06 5.282 10.908-.705-.088-1.36-.066-1.65-.27-2.035-1.897-4.181-3.744-6.074-5.77-4.673-4.857-9.315-9.794-13.957-14.732-2.62-2.769-5.32-5.569-7.766-8.548-4.246-5.245-8.35-10.62-12.564-15.945-.388-.428-.776-.855-1.704-.845 1.711 2.97 3.534 5.892 5.214 8.942a170.578 170.578 0 0 1 5 9.968c1.537 3.18 2.82 6.539 3.913 9.916-2.432-1.589-2.53-4.672-4.427-7.162.056 2.237.188 4.042.24 5.815-1.832.675-2.64-.1-3.007-1.534-.882-3.203-1.078-6.51-.409-9.665.275-1.185.06-1.822-.382-2.825-5.399-11.322-12.513-21.555-20.642-31.074-.874-1.078-1.67-2.124-2.99-3.006.117.415.09.958.318 1.324 6.073 8.63 9.375 18.216 10.925 28.508 1.205 7.85 2.935 15.535 4.442 23.318.117.414-.07.896-.171 1.872-.92-.726-1.802-1.068-1.937-1.674-2.326-6.624-7.29-11.686-10.265-17.823-4.465-9.207-7.94-18.583-8.118-29.081-.045-4.171-1.098-8.363-1.718-12.48-.054-.575-.27-1.212-.657-1.639-2.38-2.676-4.759-5.352-7.558-8.375-.523 1.828-.379 3.36-.457 4.991a39.225 39.225 0 0 1-.888 6.578c-.137.593-1.251 1.084-1.901 1.57-.456-.73-1.295-1.425-1.287-2.16a29.602 29.602 0 0 1 1.028-5.508c1.465-4.97 1.476-9.765-.273-14.78-3.296-9.123-5.127-18.693-6.494-28.267l-1.403-9.958c-.067-.303-.468-.459-.647-.713.026-.543.163-1.136.19-1.68a2.586 2.586 0 0 0-.767.072c.37.236.616.793.862 1.35Zm23.322 61.555c.286 4.264.684 8.479.97 12.743.113 1.613.115 3.275.42 4.87 2.015 10.287 6.226 19.672 11.995 28.369.407.619.987 1.029 1.813 1.995-2.362-17.251-4.478-33.946-15.198-47.977Zm59.315 63.511c.223-.099.526-.166.749-.264-.38-1.163-.618-2.455-1.221-3.519-2.006-3.639-4.092-7.309-6.321-10.849-2.765-4.302-5.275-8.782-9.656-11.773-4.462-3.021-8.812-6.092-13.162-9.163-.95-.645-1.98-1.321-2.962-1.886 9.788 13.577 20.555 26.057 32.573 37.454Zm-92.803-73.355.642.249c3.806-4.339 6.42-9.417 6.454-15.218.073-9.478-.157-18.889 1.164-28.252.194-1.217-.124-2.54-.17-3.85-1.09 1.146-1.638 2.319-1.944 3.585-1.701 8.2-3.675 16.387-4.159 24.783-.232 3.694-.655 7.406-1.078 11.118-.26 2.576-.569 5.041-.91 7.585Zm14.373-113.301c-1.382 6.663-2.61 12.925-1.05 19.621 1.058 4.655 1.127 9.481 1.72 14.141.158 1.261.539 2.424.808 3.636 1.21-1.931 1.764-3.838 2.35-5.826 1.608-5.099 2.239-10.3.935-15.512-1.192-5.262-2.99-10.389-4.763-16.06Zm30.325 96.85c-1.564-2.637-3.635-4.917-5.594-7.245-5.424-6.256-12.975-9.644-19.88-13.983 1.22 3.519 2.887 6.842 5.458 9.5 5.481 5.632 12.52 8.914 19.477 12.165 0 0 .142-.13.539-.437ZM53.817 57.401c-.267.45-.645.95-.832 1.431-1.703 3.678-3.035 7.592-5.108 11.033-3.817 6.273-6.077 13.057-7.887 20.108-.337 1.346-.514 2.755-.77 4.132C48.151 83.447 51.836 70.847 53.816 57.4Zm12.93-15.015c1.446-9.684-2.433-18.017-6.424-26.302 1.201 9.05 1.747 18.121 6.425 26.302Z"/><path d="M177.06 450.259c2.512 1.619 5.023 3.239 7.504 4.939 3.85 2.692 7.936 5.015 11.439 8.126 5.649 4.959 10.221 10.792 13.907 17.482 4.11 7.5 6.117 15.661 8.873 23.559.975 2.962 2.445 5.839 3.644 8.704.264.748.496 1.577.68 2.294-.254.178-.508.357-.842.504-.839-.694-1.82-1.259-2.485-2.163-8.996-11.333-17.881-22.714-26.988-33.997-8.362-10.348-17.009-20.437-25.482-30.736-2.755-3.375-5.162-7.17-7.774-10.674-1.947-2.601-3.893-5.201-6.286-7.605.927 2.851 1.933 5.733 2.748 8.633 1.42 5.627 2.697 11.382 4.006 17.058 1.242 5.373 2.737 10.567 6.54 14.81.647.713 1.04 1.603 1.576 2.365l-.52.629c-.643-.249-1.427-.369-2.007-.778a74.62 74.62 0 0 1-16.675-20.585c-2.756-5.037-3.552-10.606-4.985-15.961-1.501-5.658-2.698-11.383-4.309-16.991-.681-2.294-2.301-4.307-3.062-6.632-1.615-4.41-5.527-6.942-8.39-11.467.371 4.759 3.051 8.566 1.505 13.505-.812-1.238-1.281-1.697-1.527-2.253-1.115-4.032-2.502-8.077-3.122-12.194-.692-4.883-3.403-8.61-5.605-12.694-2.203-4.084-4.486-8.199-6.688-12.283-.572-1.145-1.176-2.209-2.372-3.411-.083 1.167-.358 2.353-.249 3.502.635 5.507-.089 10.948-.381 16.465-.196 4.078-.07 8.279.804 12.218 2.335 10.411 6.279 20.246 11.751 29.474.652 1.176.97 2.499 1.744 4.552-1.414-.64-2.23-.679-2.457-1.045-1.479-2.142-2.988-4.203-4.163-6.412-3.753-6.993-7.394-14.034-11.036-21.076-2.27-4.387-2.388-9.324-2.407-14.038-.026-6.84.492-13.654 1.343-20.615.176 1.453.351 2.905.335 4.376-.075 7.815-.39 15.538.734 23.357.571 4.005 2.175 7.488 4.751 10.61-.515-1.769-.949-3.506-1.575-5.226-2.2-5.282-1.828-10.768-1.647-16.236.175-5.931.814-11.866.989-17.797.085-4.029-.66-7.824-3.112-11.267-.616-.792-.965-2.035-.864-3.011.359-5.214-2.993-9.19-4.242-13.828-.282-.939-.676-1.83-1.07-2.721.224-.098.477-.277.7-.375.652 1.176 1.447 2.222 1.908 3.416 3.478 8.178 6.764 16.374 10.323 24.583 3.017 6.984 8.359 11.547 15.329 14.526 3.952 1.716 7.841 3.593 11.793 5.309 4.723 2.108 9.459 3.944 14.12 6.213 5.754 2.784 10.702 6.455 13.914 12.223 2.953 5.483 6.16 10.787 8.142 16.631.166.526.22 1.101.471 2.121-.932-.454-1.717-.574-2.025-.97-6.669-7.569-14.913-12.98-23.411-18.212-10.591-6.505-20.456-13.929-29.074-22.9-.179-.254-.611-.329-1.352-.801 1.305 2.352 2.221 4.276 3.391 6.022 2.032 3.095 4.064 6.19 6.35 9.106 2.643 3.425 5.571 6.59 8.357 9.885.776.855 1.442 1.759 2.218 2.614 2.607 3.041 5.196 5.89 9.067 7.575 2.699 1.139 5.161 2.647 8.007 4.119-1.79 1.521-2.831-.082-3.906-.406-1.315-.418-2.457-1.045-4.12-1.044 1.96 2.329 3.951 4.578 5.719 6.924 2.612 3.505 5.051 7.219 7.631 10.804 1.38 1.919 2.68 3.807 4.233 5.517 4.678 5.32 9.468 10.592 14.146 15.912 9.485 10.784 18.575 21.876 27.237 33.355 2.335 3.028 4.812 5.927 7.228 8.986.316-.339.569-.518.52-.629-3.43-12.59-7.751-24.786-16.683-34.617-3.495-3.846-7.609-7.287-11.674-10.616-3.726-3.014-7.687-5.657-11.475-8.51.129.143.272.013.365-.227Zm-52.501-64.653c-.142.129-.205.29-.347.419 2.423 2.324 4.704 4.777 7.221 6.86 6.902 5.537 13.917 11.025 21.545 15.643 5.906 3.582 11.639 7.373 16.615 12.163.678.632 1.579 1.166 2.369 1.749.07-.895-.033-1.581-.391-2.089-1.483-2.606-3.157-5.193-4.498-7.928-2.637-5.821-7.22-9.72-12.64-12.652-6.641-3.59-13.55-6.73-20.347-9.918-3.198-1.517-6.378-2.842-9.527-4.247Zm17.39 33.506c2.088 8.193 4.023 15.588 5.846 23.032 1.725 7.222 5.548 13.318 9.786 19.299.357.507.999.756 1.919 1.482-.681-2.294-1.276-4.094-1.679-5.912-1.237-4.909-2.393-9.787-3.549-14.665-2.154-8.496-6.661-15.688-12.323-23.236ZM56.56 142.266c-.693-2.022-1.425-3.229-1.503-4.459-.722-7.663-1.748-15.26-1.735-22.915.028-6.265 1.335-12.496 2.098-18.752.296-2.193.4-4.368 1.222-6.726l1.274 2.432c1.796 3.465 4.087 6.845 5.407 10.587 1.847 5.239 2.866 10.709 1.745 16.459-1.39 7.398-4.306 14.205-6.852 21.247-.186.482-.614.87-1.655 2.127Zm.893-6.114c1.014-2.376 2.081-4.177 2.587-6.196 1.273-4.952 2.738-9.922 3.468-14.899 1.1-7.603-2.648-14.132-6.013-20.697-1.53 13.712-4.067 27.403-.041 41.792ZM-28.765 97.49a16.356 16.356 0 0 0-1.157-.686 549.42 549.42 0 0 0 2.7 10.367c1.195 4.255 2.417 8.442 3.803 12.613.893 2.795 3.34 3.823 5.744 4.755 2.241.947 3.648 3.231 3.357 5.409-.211 1.972-1.35 2.873-3.27 2.524-1.782-.296-3.108-1.363-3.892-3.01-.853-1.673-1.542-3.362-2.791-5.032.128 1.709.187 3.391.41 5.057.332 2.815.526 5.576 1.117 8.333 1.197 5.677 3.603 10.481 9.39 12.882 1.374.533 2.562 1.546 3.586 2.575.512.514.73 1.784.491 2.402-.281.523-1.51.837-2.276.777-1.931-.117-3.622-.852-4.75-2.632a16.857 16.857 0 0 0-3.63-4.092c.341 1.159.587 2.36 1.023 3.477 1.781 5.193 3.943 10.218 7.275 14.669 1.624 2.131 2.91 4.525 4.29 6.877.585.937.979 1.959 1.209 2.996.219 1.27.316 2.651-1.14 3.35-1.24.546-2.71.056-3.547-1.454-.81-1.578-1.663-3.252-1.929-5.013-.577-4.016-2.34-7.622-3.844-11.286-.8-1.811-1.504-3.664-2.373-5.501-.294-.667-.753-1.319-1.704-1.925.128 1.709.23 3.486.29 5.168.036 2.147.115 4.389.084 6.51.02.561-.22 1.179-.57 1.675-1.052 1.488-2.422 1.352-3.206-.295-.884-2.001-.44-3.962.348-5.79 1.56-3.819 1.776-7.843 1.5-11.82-.365-4.565-1.385-9.068-2.543-13.625a9.82 9.82 0 0 1-.162 1.438c-.513 1.934-.82 3.948-1.58 5.707-.586 1.511-2.031 1.977-3.2 1.525-1.03-.4-1.402-1.887-.72-3.44.574-1.278 1.354-2.476 1.929-3.754 1.78-3.576 3.314-7.326 3.16-11.414-.172-3.227-.767-6.38-1.198-9.549-.193-1.339-.48-2.635-1.07-3.97-.162 1.438-.324 2.876-.624 4.261-.102.671-.368 1.358-.677 1.95-.78 1.198-2.135 1.226-2.82-.067-.363-.693-.593-1.731-.437-2.539.257-1.48 1.022-2.842 1.349-4.296 1.16-5.237 1.063-10.489-.485-15.67-.866-2.864-2.155-5.655-3.54-8.403-.706 3.044.07 6.346-1.927 9.048-2.008-.937-2.023-1.1-1.774-3.374.298-2.807.5-5.572.772-8.31.27-2.74-.373-5.36-1.536-7.864-1.963-4.315-3.994-8.658-6.21-13.545-1.421 3.872.156 7.96-3.423 11.075-.452-1.281-.995-2.124-1.072-2.944-.104-.75.147-1.601.371-2.383 1.524-4.544 1.065-9.067.14-13.612-.476-2.239-1.116-4.462-1.566-6.769-.679-3.344-1.29-6.661-1.985-10.17-2.457 3.077-2.802 7.84-7.497 8.943-.953-2.028-.435-3.565.52-5.012.377-.565.892-1.076 1.269-1.64 1.916-2.497 3.255-5.137 3.92-8.277 1.658-7.335 2.85-14.693 3.398-22.223.056-1.163.043-2.353.148-4.05-2.424 2.378-2.392 6.577-6.715 6.719.045-.931-.086-1.614.154-2.232.17-.645.643-1.251 1.02-1.816 4.296-6.392 6.065-13.606 6.407-21.215.033-.698-.044-1.518.333-2.083 1.37-2.312.456-4.642.383-7.514-1.607 1.905-1.868 4.411-4.313 4.806-1.352-.998-1.449-2.378-1.08-3.736.619-2.21 1.307-4.392 2.2-6.494 1.267-3.064 1.508-6.13 1.199-9.41-.283-3.348-.211-6.796-.398-10.186-.055-1.285-.438-2.54-.773-4.328-1.767 2.316-1.695 5.188-4.074 6.636-.906-1.536-.183-2.994.022-4.337.275-2.342.81-4.741 1.086-7.083.249-2.273-.158-4.485-1.29-6.662-1.606-2.992-2.805-6.222-4.056-9.314-.295-.667-.303-1.46-.476-2.238.19-.084.381-.168.53-.347.665.731 1.493 1.448 2.036 2.29.864 1.44 1.511 3.034 2.253 4.586.769 1.483 1.702 2.95 2.28 4.517 1.213 3.394 2.194 6.776 3.217 10.253.74 2.578 1.453 5.224 2.192 7.801.598 2.128 1.901 3.66 3.734 4.844.813.553 1.669 1.2 2.074 1.99.363.693.35 1.952-.043 2.353-.488.443-1.773.497-2.434.162-.908-.51-1.562-1.475-2.269-2.301-.264-.34-.527-.679-.764-1.087-.26.058-.588.088-.847.146.184.545.505 1.144.593 1.73l2.235 20.537c.247 2.623.876 5.079 2.881 7.041.692.663 1.113 1.616 1.629 2.527.78 1.25.327 2.418-.622 3.235-1.07.928-2.106.132-2.908-.653-.844-.88-1.609-1.967-2.876-2.774-.1 2.094-.338 4.135-.344 6.186-.043 4.802-.018 9.63.198 14.375.086 1.613.8 3.233 1.379 4.8.578 1.567 1.415 3.077 2.062 4.67.226.64.425 1.35.556 2.033.23 1.037.148 2.269-.959 2.472-.751.104-1.866-.486-2.488-1.123-.734-.758-1.197-1.807-2.06-3.247-.558 2.864-1.643 5.05-1.04 7.575.172.778.085 1.613.025 2.38-.147 1.602.168 2.83 1.154 4.16 1.07 1.52 1.583 3.457 2.177 5.188.988 2.753 2.612 4.884 4.835 6.693 1.035.796 1.921 1.772 2.739 2.72.817.95.73 1.785-.398 2.454-4.125-.573-5.968-3.973-8.632-7.296.761 4.56 2.483 8.072 4.368 11.567.88 1.605 1.976 3.057 2.692 4.677 1.194 2.833 3.264 4.425 6.065 5.354 2.115.661 4.08 1.502 6.115 2.37 1.279.575 2.695 1.203 2.4 2.984-.151 1.205-1.73 2.015-3.76 1.544-2.332-.509-4.477-1.498-6.565-2.229.564 2.826 3.785 9.604 5.36 12.269 2.329 3.983 5.777 6.505 9.66 8.72a14.084 14.084 0 0 1 2.91 2.077c1.188 1.013 1.845 2.374 1.603 4.018-.215 1.576-.856 1.801-2.605.807l-.026.069c.907-.912 1.417-1.821.473-3.055-1.123-1.384-6-4.3-8.098-4.799.013 1.19.033 1.751.216 2.296Zm-1.163-21.464c-2.972-2.732-6.315-3.08-9.524-3.771 2.677 2.064 5.248 4.404 9.524 3.77Zm13.378 53.767c-.595-3.153-.733-3.207-4.572-3.905 1.604 4.019 1.715 4.141 4.572 3.905Zm-39.147-88.008c-3.925 4.008-3.925 4.008-3.586 6.193 2.035-1.58 2.845-3.874 3.586-6.193Zm8.935-49.146c.252 3.02.89 3.82 3.481 4.272-1.318-1.696-2.4-2.984-3.48-4.272Zm-4.375-14.81-.756-.293c-.597 1.744-1.88 3.221-1.145 5.402.665-1.717 1.33-3.434 1.901-5.109Zm6.086-11.622c.218-.153.366-.333.61-.554-.14-1.476-.846-2.303-3.078-2.457 1.054 1.357 1.761 2.184 2.468 3.01Zm33.518 188.361c-1.001-1.495-2.212-2.043-3.936-2.079.906 1.536 1.914 2.401 3.936 2.079Zm-9.931 9.105c-1.47 1.958-1.493 2.423-.62 4.657.253-1.877.389-3.246.62-4.657Zm-7.832-48.3c-.206-.08-.343-.133-.576-.144-.266.686-.506 1.304-.704 2.018-.33 1.057-.261 1.083.381 2.28.38-1.591.626-2.838.9-4.154ZM-27 141.462c-.206-.08-.454-.255-.66-.335-.51.908-1.02 1.816-1.504 2.656.275.106.454.255.729.361.51-.908 1.02-1.816 1.435-2.682ZM-48.585 23.846c-.217.152-.477.21-.503.278.23 1.038.514 1.937 2.098 2.947-.742-1.552-1.12-2.41-1.595-3.226Zm.368 47.776c-.155.808-.337 1.686-.61 3.002 1.547-1.138 1.127-2.091.61-3.002ZM-56.22-45.55l.412.16c.202-.317.377-.565.441-.935.107-.275-.02-.56.018-.862-.164.015-.328.03-.465-.023-.144.577-.262 1.084-.406 1.66ZM173.531-96.991c-1.862-.09-2.78 1.055-3.767 2.173l-.244.222c-2.148 2.484-4.229 4.996-6.377 7.48-1.433 1.657-2.797 3.34-4.229 4.997-.446.538-.648.855-.59 1.114l.51-.908.618.24c-1.172 5.47-11.637 14.526-16.986 14.664l-.328.03-.031-.327a2.414 2.414 0 0 1 .586-1.51c-.218.152-.53.347-.748.5-.339.263-.658 1.087-.67 1.32.375.46 1.173.85 1.57.845 1.503-.207 2.948-.674 4.187-1.22 4.587-2.251 8.654-5.81 12.878-11.202l.175-.248c.648-.855 1.391-1.752 2.409-2.542l.869-.612-.4 1.03c-.159.413-.319.825-.41 1.263-.277.92-.624 1.813-1.038 2.679-2.946 5.967-5.972 12.14-10.181 17.698-1.348 1.847-2.406 3.965-3.369 6.04l-.468 1.004c-1.164 2.392-2.626 5.143-4.912 7.575-2.949 3.122-5.814 6.435-8.626 9.611l-2.149 2.485c-5.082 5.771-10.512 11.012-16.279 15.491-.122.111-.34.264-.462.375-.991.721-1.574 1.206-1.317 2.175.505 1.143 1.558 1.077 2.87.954 1.831-.238 3.346-.678 4.447-1.278 3.497-1.883 6.508-4.35 8.843-7.315a60.389 60.389 0 0 1 3.528-4.004c.663-.69 1.257-1.409 1.947-2.168l.811-.87-.219 1.178c-.671 3.77-1.896 6.928-3.136 9.923l-.878 2.266c-1.422 3.873-3.753 7.235-5.962 10.486-1.306 1.943-2.613 3.885-3.808 5.95-1.839 3.316-3.979 6.594-5.928 9.788l-.781 1.198c-.228.385-.526.744-.754 1.13-.35.496-.674.923-.982 1.515.121-.111.243-.222.297-.36a835.207 835.207 0 0 0 6.18-9.215 1641.39 1641.39 0 0 1 4.738-7.327l2.193-3.416 1.141.522s-.627 1.415-.936 2.007c-.574 1.278-1.149 2.556-1.792 3.808-.978 1.911-1.93 3.754-2.977 5.64-1.126 2.09-2.184 4.208-3.311 6.299-1.313 2.572-3.001 4.682-5.131 6.305-.366.332-.732.664-1.056 1.092 2.421-1.352 4.479-3.399 6.051-6.028 1.291-2.106 2.54-4.308 3.762-6.441l2.136-3.675c.202-.316.403-.633.796-1.034.175-.248.419-.47.621-.786l.743-.897-.332 3.505c-.12 1.533-.282 2.971-.418 4.34-.621 7.107-.19 12.724 1.178 17.757.215.873.525 1.704.808 2.604.341 1.16.778 2.276 1.214 3.393.436 1.118.777 2.277 1.214 3.394.31.831.524 1.704.808 2.604 1.238 4.35 2.116 8.404 2.652 12.324.327 2.418.421 4.824.447 7.204.024.957.022 1.983.115 2.967-.012.233-.091.439-.129.74a1.83 1.83 0 0 0-.145.576l-.197.714-.39-.625c-.153-.218-.264-.34-.348-.53-.195-.313-.416-.557-.543-.843a174.473 174.473 0 0 1-3.058-8.216c-.693-2.085-1.276-4.049-1.721-5.96-1.549-6.604-2.279-13.285-2.682-18.971l-.318-4.073a361.545 361.545 0 0 1-.694-8.405 6.796 6.796 0 0 0-.203-1.106c-.184-.545-.516-.911-1.177-1.246-.122.11-.175.248-.297.359-.297.358-.621.786-.781 1.198l-.463 1.4c-1.156 3.186-2.27 6.467-3.22 9.732-1.622 5.612-4.321 10.332-8.219 14.272-1.91 1.866-3.735 3.924-5.464 5.939-1.082 1.16-2.096 2.347-3.178 3.508-3.57 3.908-7.073 6.421-10.86 8.034-.286.126-.514.512-.77.966-.052.137-.174.248-.201.316.137.054.18.149.317.202.386.229.813.553 1.141.522 2.545-.04 4.527-1.484 6.181-2.897a122.815 122.815 0 0 0 8.129-7.513c2.328-2.336 4.599-4.932 6.79-7.321l1.284-1.477c.689-.76 1.337-1.615 2.106-2.58.42-.47.823-1.103 1.364-1.684l.592.309c-.235 1.015-.417 1.892-.626 2.838-.417 1.892-.797 3.483-.97 5.153-.245 2.67-1.494 4.872-2.647 7.032-.59 1.114-1.275 2.27-1.728 3.438-.692 1.785-1.495 3.449-2.298 5.112l-1.324 2.805c-.16.412-.442.935-.358 1.125.016.164.127.286.142.45 1.019 3.08-.611 5.45-2.066 7.573l-.228.385c-2.183 3.183-3.418 6.575-4.734 10.172l-.426 1.099c-1.742 4.696-3.782 8.33-6.663 11.478l-.567.65.018-.863c0-2.448.773-4.44 1.613-6.405l.373-.961c-1.462 2.75-2.442 5.688-2.984 8.717.015.164-.022.466.104.751.1.355.252.572.39.626.343.133 1.148-.108 1.392-.33l1.242-1.572c1.89-2.428 3.874-4.897 5.404-7.621.914-1.542 1.579-3.259 2.15-4.934.399-1.03.73-2.087 1.171-3.021.601-1.347 1.244-2.599 1.888-3.85.281-.523 1.005-1.98 1.005-1.98l1.099.425-.225 3.231c-.18 2.3-.334 4.531-.514 6.831-.234 2.438-.467 4.875-.77 7.285-.184 1.904-.438 3.78-.649 5.752-.049.534.04 1.122.155 1.64 1.344 4.076.345 7.876-.81 11.061-1.183 3.255-1.683 6.379-1.484 9.536.401 6.712-1.656 12.63-4.116 19.18l-.107.275-1.343-.205.462-2.822c-.026.068-.095.042-.095.042-.47 2.029-.968 4.127-1.465 6.225l-.38 1.591c1.069.098 1.636-.551 2.093-1.321 3.804-6.346 6.036-12.512 6.787-18.935.276-2.342.414-4.737.525-7.064.03-1.094.127-2.162.225-3.23l.038-.302 1.286-.054s.334 1.788.438 2.539c.292 1.693.611 3.318.834 4.984.338 2.185.608 4.344.851 6.571.505 3.592.956 7.322 1.529 10.941.891 5.243 1.951 10.867 3.352 17.651.564 2.826.411 5.057-.51 7.228-1.282 2.9-2.289 5.906-3.285 8.68-1.434 4.105-1.619 8.456-1.638 11.767-.037 4.172 0 8.768.129 14.348l.061 3.104c.069 3.898.086 7.933.388 11.842.536 7.791 1.782 15.384 3.859 22.666.482 1.609.843 3.329 1.231 4.98.13.683.287 1.297.487 2.006 1.201-.245 1.567-.578 1.554-1.767-.169-4.253-.27-8.479.137-12.586.207-2.369.784-4.673 1.335-6.909.288-1.152.55-2.235.77-3.414 1.119-5.333 1.167-9.738.219-13.818-.617-2.688-.907-5.407-1.223-8.057-.228-2.063-.513-4.386.751-6.424 4.09-6.472 2.964-13.149 1.186-19.368l-1.023-3.477c-.682-2.318-1.406-4.732-2.035-7.187-.372-1.488-.431-3.169-.22-5.141l.113-.904.474.815c.111.122.153.218.264.34.195.312.417.556.516.911 1.072 2.943 2.239 5.844 3.311 8.788 1.903 5.082 3.847 10.259 5.845 15.3.815 1.974 1.509 4.06 2.16 6.05a136.284 136.284 0 0 1 6.411 32.188c.442 5.384 1.227 10.902 1.954 16.161l.401 2.841c1.174 8.592 2.408 16.417 3.559 24.051.834 4.984 1.672 10.365 2.865 15.646.403 1.815.97 3.615 1.563 5.346l.778 2.276c.241.804.509 1.54.75 2.345.299 1.064.598 2.127.855 3.096l1.196 4.255c.126.286.226.641.352.927.861 2.466 1.956 4.944 2.939 7.3a119.508 119.508 0 0 1 1.672 4.046c.127.285.253.571.31.831l.552 1.635c.084.191.168.382.226.641.184.545.447.884.722.991.206.08.508.118.794-.009l.037-.301c-.004-.397-.035-.724-.039-1.121-.829-7.036-1.472-14.553-.348-21.937 1.033-6.946.22-13.818-2.611-22.42-.283-.9-.566-1.8-.945-2.657-1.566-4.32-3.163-8.968-4.974-14.489-1.486-4.525-2.93-8.956-4.416-13.482l-1.218-3.79c-.651-1.99-1.085-4.133-1.476-6.181a49.471 49.471 0 0 1-.492-2.402c-.057-.259.049-.534.156-.809l.186-.48.24-.618 1.949 3.125c.474.816.864 1.441 1.971 1.238.423-.073.633.404.997 1.098.084.19.168.381.279.503l.454.255c.454.255.84.483 1.172.849 2.354 2.492 4.638 4.958 6.992 7.45 1.662 1.829 3.419 3.616 5.081 5.446 5.15 5.472 9.667 11.963 13.236 19.271.937 1.864 1.657 3.881 2.403 5.829.352.926.636 1.826 1.015 2.684l-.53.348c-2.254-2.138-4.126-4.444-6.041-6.845l-3.08-3.879c-3.038-3.785-6.091-7.733-9.075-11.655-2.263-2.931-4.651-6.148-6.754-9.491-1.433-2.214-2.649-4.582-3.824-6.854-.489-.979-1.005-1.89-1.495-2.87-.423.073-.545.183-.572.252-.027.069-.08.206.031.328l.084.191c.658 1.361 1.232 2.531 1.996 3.617l3.59 5.42c3.325 5.081 6.804 10.38 10.389 15.403 3.153 4.303 6.469 8.591 9.702 12.688 1.651 2.062 3.275 4.192 4.926 6.254.722.991 1.513 2.008 2.209 3.068.264.339.459.652.696 1.06.619-2.209.174-4.12-.335-5.66-.226-.64-.452-1.281-.747-1.948-.168-.381-.31-.831-.478-1.212-1.424-3.87-3.161-7.545-4.588-10.389-2.616-5.28-6.201-10.304-10.77-15.235l-2.907-3.101c-4.707-4.985-9.498-10.16-13.976-15.529-2.12-2.481-3.483-5.695-4.665-8.761-1.52-3.827-2.944-7.697-4.368-11.567-1.171-3.298-2.438-6.554-3.705-9.81-1.577-4.087-3.249-8.132-4.895-12.246a571.136 571.136 0 0 1-4.979-12.436c-1.661-4.278-3.201-8.666-4.698-12.959l-1.581-4.484c-.41-1.186-.502-2.17-.309-3.28l.182-.877.501.747c.237.408.5.747.737 1.155.543.842 1.086 1.685 1.602 2.596a41.778 41.778 0 0 0 8.892 11.109c.692.663 1.531 1.147 2.371 1.631.317.201.592.308.909.51.88-.844.819-1.5.703-2.018-.084-.191-.141-.45-.294-.668-.99-1.726-1.912-3.427-2.834-5.127-2.095-3.972-4.328-7.997-6.954-11.622-4.93-6.651-8.463-13.234-10.811-20.227-1.543-4.785-2.61-9.78-3.021-14.837-.942-12.451-.801-24.64.619-36.255l.14-.973c.627-5.287 1.333-10.78 3.605-15.823l.08-.206 2.545-.04.084.19c.084.19.153.217.126.286l-.027.068.016.164c.106 2.174.143 4.321.18 6.469.104 4.622.198 9.477.742 14.19.648 5.465 1.597 10.968 2.626 16.264l1.268 7.127.338 2.185c.308 1.857.642 3.646.976 5.434.042.096.016.164.058.26.168.381.336.762.573 1.17.085.191.195.313.28.503l.259-.057c-.016-.164-.031-.328.022-.466-.02-.56.029-1.094-.086-1.613-.526-3.127-1.026-6.322-1.553-9.45-.396-2.444-.834-4.983-1.23-7.428-1.699-10.296-2.408-18.865-2.303-26.882a50.54 50.54 0 0 0-.702-9.198c-.996-5.995-.393-12.239 1.791-20.318a166.938 166.938 0 0 0 2.031-8.297c.353-1.523.679-2.976 1.032-4.498.326-1.453.779-2.62 1.273-3.693l.548-1.21.055 1.286c.597 10.895 1.651 23.469 5.668 35.532 1.329 3.912 2.833 7.576 4.649 11.045.107-.275.187-.48.335-.66.335-.66.521-1.14.612-1.58.7-4.863.072-9.767-.697-15.121-.593-4.18-1.869-8.229-3.06-12.087-.866-2.864-1.8-5.754-2.475-8.701-1.858-8.462-2.112-16.776-.653-24.82.97-5.154 2.696-10.015 5.07-15.73l.24-.618c.559-1.442 1.213-2.926 2.211-4.277l.648-.855-.054 2.586c-.056 1.163-.112 2.326-.099 3.516-.028 4.966.522 9.05 1.767 12.771l.168.382c.494 1.376.961 2.82 1.455 4.197l1.911 5.876c.326.995.651 1.99 1.004 2.916.126.286.321.599.627 1.034.042.095.152.217.195.312.079-.206.064-.37.117-.507.102-.672.193-1.11.189-1.507l-.024-.957c-.121-2.338-.147-4.718-.432-7.04-.752-6.216-1.149-12.532-1.306-19.465-.057-2.708.489-5.34 1.009-7.904.364-1.754.755-3.578.912-5.412.049-.534.098-1.068.121-1.534.093-1.464.213-2.997.513-4.382.182-.878.269-1.713.451-2.59.553-3.262 1.133-6.592 2.124-9.762.875-2.663 2.394-5.155 3.886-7.578l.606-.95c1.546-2.56 3.229-5.068 4.886-7.506.727-1.061 1.454-2.122 2.14-3.279.403-.633.807-1.266 1.623-1.74l.53-.348-.007.63c.015.164.031.328-.022.465.004.397.035.725-.125 1.137-2.27 6.466-4.027 13.447-5.209 20.573-.682 4.001-.701 7.312-.052 10.328.115.518.23 1.037.372 1.487.325.995.853 1.673 1.555 2.104.996-.325 1.521-1.07 1.726-2.412.291-2.178.513-4.383.678-6.847.158-1.834.22-3.627.378-5.462.225-3.23.408-6.556.702-9.76.52-5.012 2.357-9.75 4.267-14.066 1.362-3.106 2.423-6.25 3.392-8.954 1.407-4.036 2.543-7.783 3.626-11.392.357-1.125.508-2.33.686-3.604.827-.707.945-1.214.967-1.68ZM162.71-72.748c2.23-7.588 4.821-13.456 8.146-18.566l.592.308-1.784 4.602c-1.742 4.696-3.563 9.599-6.431 13.938l-.523-.282Zm-5.562 22.095 1.355-.028-.3 1.385-.63-.007-.425-1.35Zm-.609 13.193-.02-.56c-.019-3.01.015-6.156.118-9.276.049-.534.304-.988.586-1.511.053-.137.202-.317.255-.454l.645.17.025 13.597-.596-.705c-.222-.244-.444-.487-.554-.61-.222-.243-.333-.365-.417-.556l.027-.069-.069-.026ZM140.44 1.01c-.582-1.964-1.207-4.023-1.694-6.028-1.79-7.409-.999-15.16-.279-21.91.212-1.973.587-3.96 1.031-5.92.311-1.618 1.34-2.641 3.315-3.456l.641-.225-.171.645c-3.33 13.48-2.325 26.588-.757 38.65l.134 1.08-.706-.827c-.291-.27-.444-.488-.597-.705-.29-.271-.511-.515-.569-.774l-.348-.53Zm-2.686-36.905.951.606-.887 1.473-.882-.58.818-1.499Zm-.272 5.188c-.084-.191.091-.44.187-.481l.148-.18.233.012.343.133.386.228-.16.412-.621.786-.237-.407c-.126-.286-.237-.408-.279-.503Zm-1.522-2.802.539.445c-2.68 5.281-5.753 9.54-9.343 12.888-2.222 2.062-4.749 3.689-7.319 5.22-1.468.932-2.917 1.002-4.006.344l-.385-.229 20.514-18.668Zm-22.75 166.943c1.418 2.051 2.863 4.033 4.308 6.015 4.571 6.353 9.39 12.882 13.111 20.407l.574 1.171-1.061-.728c-5.652-3.77-8.733-9.073-11.8-14.211-1.017-1.658-2.007-3.385-3.092-5.07-.501-.747-.922-1.7-1.332-2.886l-.598-2.127a33.434 33.434 0 0 0-.624-2.059l-.058-.26.572-.252Zm40.951 167.149-2.299-7.526c-1.842-5.849-3.742-11.957-5.245-18.07-1.964-8.186-3.191-16.641-4.388-24.767-1.108-7.539-2.068-15.258-2.901-22.69l-.809-6.475c-.223-1.667-.325-3.444-.411-5.057-.008-.794-.112-1.545-.19-2.365l-.031-.328 1.038-.229.38 2.28.877 5.079c.073.424.146.847.15 1.243.046.492.119.916.166 1.408 1.383 7.645 3.284 15.176 5.716 22.359.283.9.636 1.826.919 2.726.536 1.472 1.003 2.917 1.539 4.389 1.539 4.388 3.163 8.967 4.839 13.409.353.926.663 1.757 1.015 2.684 1.654 4.907 2.251 9.483 1.806 13.892-.538 5.874-.974 11.077-.601 16.435.004.397-.018.862-.109 1.301a9.542 9.542 0 0 1-.06.766l-.076.603-.47-.419c-.111-.122-.317-.202-.359-.297a.575.575 0 0 1-.496-.351Zm-39.788-66.375c-.594-1.731-1.008-3.314-1.242-4.747-.777-4.725-1.673-10.365-2.172-16.009-.382-3.703-.494-7.696-.523-12.921.012-2.681.05-5.431.131-8.086.107-2.723.172-5.542.142-8.318.007-6.949 1.891-13.644 6.052-21.115l.335-.661.452 1.281c.057.26.183.546.268.736.084.191.099.355.183.546.372 1.487.786 3.069 1.158 4.556.414 1.582.828 3.165 1.174 4.721 1.2 4.652.724 8.733-1.454 12.312l-.228.386c-1.063 1.721-2.056 3.468-1.897 5.505.061.656.097 1.38.158 2.036.164 2.433.342 5.031 1.024 7.349 1.238 4.35 1.148 8.66.89 12.589-.207 2.368-.742 4.768-1.293 7.003-.694 2.812-1.374 5.787-1.286 8.823.044 1.518-.076 3.051-.101 4.542-.034.698-.04 1.328-.074 2.026l-.683.13a26.477 26.477 0 0 1-1.014-2.684ZM143.89-69.459c.408-.236.762-.336 1.033-.626-.095.042-.721.431-1.033.626Z"/><path d="m108.416 20.826.544-1.607-1.49 1.398c1.203 1.177 2.198.852 3.232.226l-2.286-.017ZM113.637 80.752c.396 2.445.819 4.82 1.284 7.291.095-.042.164-.015.328-.03-.177-1.175-.449-2.307-.626-3.482-.22-1.27-.301-2.486-.494-3.825-.095.042-.328.03-.492.046ZM100.798 76.565l-.107.274.175-.248-.068-.026ZM113.644 61.164c.956-1.446.956-1.446.464-3.849-.098 1.069-.078 1.63-.153 2.232-.076.603-.125 1.136-.2 1.74l-.111-.123ZM99.436 135.125c-.029-1.354-.057-2.708-.154-4.089-.86 1.405-.53 2.797.154 4.089ZM99.478 79.766c-1.521 1.07-1.521 1.07-1.892 3.453a87.987 87.987 0 0 1 1.823-3.48l.069.027ZM116.712 93.004c-.088-.588-.203-1.106-.292-1.694-.095.043-.164.016-.259.058.088.587.203 1.106.292 1.693.095-.042.19-.084.259-.057Z"/><path d="M113.713 61.19c-.076.604-.083 1.233-.158 1.836.164-.016.259-.058.396-.005-.088-.587-.177-1.174-.238-1.83 0 0-.069-.027 0 0ZM103.953 71.074c-.323.427-.716.828-1.04 1.255.206.08.386.229.592.309.118-.508.262-1.084.38-1.591l.068.027ZM113.813 71.736c-.099-.355-.241-.804-.34-1.159-.096.042-.191.084-.26.058l.219 1.269.381-.168ZM117.936 97.19c.015.164.03.328.141.45.042.095.137.053.274.106.054-.137.107-.274.065-.37-.111-.121-.275-.106-.48-.185ZM119.466 100.784c-.126-.285-.184-.544-.31-.83l-.163.016c.03.327.088.586.05.887.164-.015.259-.057.423-.073ZM100.478 126.523c-.031-.328-.062-.656-.066-1.052-.096.042-.233-.011-.328.031.031.327-.034.697-.003 1.025.164-.015.26-.057.397-.004ZM102.935 113.257c.057.258.099.354.073.422 0 0 .068.027.095-.042-.069-.026-.111-.122-.168-.38ZM105.02 69.75c-.323.427-.674.923-1.066 1.324l-.069-.027c.324-.427.674-.923.998-1.35.095-.043.137.052.137.052Z"/><path d="M106.267 68.574c-.282.522-1.809-.227-1.246 1.175l-.069-.026c.461-.374.853-.775 1.315-1.15ZM106.267 68.573c-.046-.492-.093-.983-.112-1.544-.164.016-.26.058-.424.073.211.476.394 1.021.536 1.47Z"/></g></svg>