<svg xmlns:xlink="http://www.w3.org/1999/xlink" width="105" height="100" fill="none" xmlns="http://www.w3.org/2000/svg"><path d="M70.11 30.879c-3.962 0-7.766.667-11.318 1.876-5.816-7.34-14.281-11.773-23.602-12.395L46.653 7.106h.001l.007-.008c.033-.04.045-.087.072-.13.041-.063.084-.122.111-.194.006-.015.018-.029.023-.045.02-.059.014-.12.023-.18.008-.05.03-.097.03-.15 0-.012-.006-.022-.006-.033 0-.015.003-.03.002-.043-.004-.064-.033-.122-.049-.183v-.004c-.017-.06-.023-.122-.047-.177-.006-.01-.007-.022-.012-.033-.023-.046-.067-.083-.097-.127-.044-.063-.082-.126-.138-.179-.01-.008-.013-.02-.023-.028L40.399.266V.265c-.042-.036-.092-.048-.136-.077-.065-.042-.125-.085-.198-.113-.075-.028-.152-.034-.228-.045-.051-.007-.097-.03-.15-.03h-13.55c-.053 0-.098.023-.149.03-.079.01-.156.018-.23.046-.073.027-.133.07-.197.112-.046.028-.096.041-.137.077l-6.15 5.327c-.01.01-.013.02-.023.028-.056.053-.094.116-.139.18-.03.043-.073.079-.096.126-.005.01-.006.022-.012.033-.025.055-.031.117-.046.177l-.002.004c-.016.061-.044.12-.048.183-.001.014.003.028.002.043 0 .011-.007.022-.007.034 0 .052.023.098.03.149.01.061.004.122.023.18.006.016.018.029.023.045.027.072.07.13.112.194.027.043.039.09.072.13l.007.007v.001l11.464 13.257C13.546 21.526 0 35.658 0 52.876 0 70.85 14.764 85.472 32.91 85.472c2.79 0 5.5-.348 8.088-1C47.49 94.205 58.305 100 70.108 100 89.348 100 105 84.495 105 65.438c.001-19.057-15.652-34.56-34.89-34.56ZM36.406 7.472l-3.496 10.463-3.495-10.463h6.991Zm-6.009-2.144 2.513-2.68 2.513 2.68h-5.026Zm8.29 2.144h4.798l-7.82 9.04 3.022-9.04Zm.716-2.144.796-2.386 2.754 2.386h-3.55Zm-1.95-.987-2.06-2.197h2.795l-.735 2.197Zm-9.085 0-.735-2.198h2.795l-2.06 2.198ZM25.62 2.942l.797 2.386h-3.552l2.755-2.386Zm1.514 4.53 3.02 9.042-7.818-9.042h4.798ZM2.165 52.876c0-16.793 13.79-30.453 30.743-30.456h.004c9.31 0 17.885 4.043 23.752 11.13a35.054 35.054 0 0 0-3.636 1.769c-5.1-5.732-12.378-9.01-20.118-9.01-14.79 0-26.821 11.918-26.821 26.567 0 14.649 12.032 26.566 26.82 26.566 4.384 0 8.521-1.053 12.178-2.908.015-.005.029-.002.044-.008.039-.016.066-.047.102-.067C53.836 72.03 59.73 63.123 59.73 52.874c0-3.59-.713-7.052-2.104-10.314a26.119 26.119 0 0 1 3.583-1.59 29.96 29.96 0 0 1 2.45 11.904c0 16.792-13.794 30.452-30.748 30.452-16.954.002-30.747-13.659-30.747-30.45Zm48.986-16.43c-9.581 6.168-15.936 16.856-15.936 28.992 0 3.948.67 7.803 1.98 11.483a24.93 24.93 0 0 1-4.283.377c-13.596 0-24.656-10.957-24.656-24.422 0-13.467 11.061-24.422 24.656-24.422 6.984-.002 13.565 2.9 18.239 7.993Zm-7.303 28.992c0-9.097 4.745-17.114 11.908-21.763a24.025 24.025 0 0 1 1.81 9.2c0 8.985-4.928 16.848-12.243 21.09a25.678 25.678 0 0 1-1.475-8.527Zm19.438-25.111a26.418 26.418 0 0 1 6.823-.895c14.479 0 26.258 11.666 26.258 26.007 0 14.342-11.78 26.008-26.258 26.008-8.22 0-15.94-3.822-20.897-10.271 9.914-5.624 16.613-16.199 16.613-28.302 0-4.359-.86-8.573-2.539-12.547Zm6.823 57.53c-10.848 0-20.806-5.22-26.932-14.017a32.794 32.794 0 0 0 4.105-1.645c5.356 7.149 13.812 11.398 22.827 11.398 15.674 0 28.423-12.63 28.423-28.154S85.782 37.286 70.11 37.286c-3.013 0-5.918.47-8.645 1.336-.04.013-.08.01-.117.028-.012.005-.019.016-.03.021a28.479 28.479 0 0 0-5.498 2.447c-.01.004-.022.003-.032.008-.026.011-.042.035-.067.048-8.39 4.9-14.035 13.938-14.035 24.263 0 3.285.57 6.491 1.684 9.547a24.46 24.46 0 0 1-4.041 1.468 32.01 32.01 0 0 1-1.947-11.015c0-17.874 14.682-32.416 32.73-32.416 18.045 0 32.726 14.542 32.726 32.416-.001 17.877-14.682 32.42-32.728 32.42Z" fill="#FFFFFF"></path></svg>